<svg width="12" height="12" viewBox="0 0 12 12" fill="none" xmlns="http://www.w3.org/2000/svg">
<path d="M11.4877 6.48578C11.518 6.45526 11.5442 6.42187 11.5679 6.38736C11.5753 6.37673 11.5817 6.36585 11.5882 6.35485C11.6041 6.32897 11.6183 6.30233 11.6305 6.27483C11.6358 6.26308 11.6414 6.25145 11.6461 6.23958C11.6606 6.20158 11.6729 6.16283 11.6807 6.12308C11.6811 6.12071 11.6811 6.11821 11.6816 6.11596C11.6887 6.07809 11.6919 6.03973 11.6927 6.00099C11.6929 5.98874 11.6922 5.9765 11.692 5.96425C11.6911 5.93489 11.6884 5.90541 11.6836 5.87605C11.6815 5.86318 11.6797 5.85043 11.677 5.83744C11.6699 5.80434 11.6601 5.77173 11.648 5.73963C11.6454 5.73251 11.6439 5.72502 11.6409 5.71802L11.6401 5.71578C11.6244 5.67781 11.6049 5.64247 11.5834 5.60875C11.5773 5.59914 11.5702 5.59002 11.5636 5.58066C11.5443 5.55344 11.5234 5.52772 11.5008 5.50363C11.4959 5.49851 11.4927 5.49251 11.4877 5.48752L6.51231 0.512149C6.23658 0.236419 5.78899 0.236897 5.51267 0.513217C5.23635 0.789536 5.23588 1.23712 5.51161 1.51285L9.28158 5.28283L1.00059 5.29217C0.610233 5.29258 0.293386 5.60943 0.292969 5.99979C0.292761 6.19497 0.371792 6.37157 0.499485 6.49926C0.627177 6.62695 0.804028 6.70599 0.999083 6.70565L9.2862 6.69643L5.50076 10.5023C5.22557 10.779 5.22597 11.2255 5.50107 11.5006L5.50244 11.502C5.77892 11.7769 6.22651 11.7752 6.50208 11.4982L11.4877 6.48578Z" />
</svg>
