<svg width="48" height="48" viewBox="0 0 48 48" xmlns="http://www.w3.org/2000/svg">
<path fill-rule="evenodd" clip-rule="evenodd" d="M24 47C36.7025 47 47 36.7025 47 24C47 11.2975 36.7025 1 24 1C11.2975 1 1 11.2975 1 24C1 36.7025 11.2975 47 24 47ZM24 48C37.2548 48 48 37.2548 48 24C48 10.7452 37.2548 0 24 0C10.7452 0 0 10.7452 0 24C0 37.2548 10.7452 48 24 48Z" />
<path d="M23.1907 23.0033C22.4867 22.2888 21.7801 21.5742 21.0761 20.857C19.9581 19.7255 18.8428 18.5913 17.7248 17.4597C17.4664 17.1967 17.208 16.9364 16.9496 16.6734C16.9496 17.3003 16.9496 17.9245 16.9496 18.5514C17.6562 17.8449 18.3629 17.1383 19.0669 16.4317C20.1848 15.3134 21.3028 14.1952 22.4181 13.0769C22.6739 12.8192 22.9323 12.5616 23.1881 12.3066C23.428 12.0675 23.573 11.7063 23.573 11.3663C23.573 11.0395 23.4306 10.6517 23.1881 10.4259C22.9376 10.1948 22.608 10.0222 22.2547 10.0381C21.904 10.0541 21.577 10.1736 21.3213 10.4259C20.6146 11.1325 19.908 11.8391 19.204 12.5456C18.086 13.6639 16.968 14.7822 15.8527 15.9005C15.597 16.1581 15.3386 16.4158 15.0828 16.6708C14.5765 17.1781 14.5818 18.0414 15.0828 18.5488C15.7868 19.2633 16.4934 19.9778 17.1974 20.695C18.3154 21.8266 19.4307 22.9608 20.5487 24.0924C20.8071 24.3553 21.0655 24.6156 21.3239 24.8786C21.5612 25.1203 21.9198 25.2664 22.2573 25.2664C22.5816 25.2664 22.9666 25.123 23.1907 24.8786C23.4201 24.6263 23.5915 24.2942 23.5757 23.9383C23.5598 23.5903 23.4412 23.2583 23.1907 23.0033Z" />
<path d="M16.0376 18.9412C16.4173 18.9412 16.797 18.9413 17.1793 18.9439C18.0811 18.9439 18.9802 18.9466 19.882 18.9466C20.9472 18.9492 22.0124 18.9492 23.0777 18.9519C23.9346 18.9519 24.7915 18.9545 25.6485 18.9545C26.1257 18.9545 26.6082 18.9413 27.0855 18.9731C27.2674 18.9838 27.4494 19.0023 27.6313 19.0263C27.5153 19.0103 27.3966 18.9944 27.2806 18.9784C27.9767 19.0741 28.6596 19.26 29.3082 19.5336C29.2028 19.4884 29.0973 19.4433 28.9945 19.4008C29.6405 19.6744 30.2469 20.033 30.8006 20.4606C30.711 20.3916 30.624 20.3225 30.5343 20.2534C31.0854 20.6837 31.5785 21.1805 32.0056 21.7356C31.937 21.6453 31.8685 21.5577 31.7999 21.4673C32.2271 22.0278 32.5804 22.6388 32.852 23.2869C32.8072 23.1806 32.7623 23.0744 32.7202 22.9708C32.9917 23.6242 33.1763 24.3095 33.2712 25.0134C33.2554 24.8966 33.2396 24.777 33.2238 24.6602C33.3161 25.372 33.3161 26.0919 33.2238 26.8038C33.2396 26.6869 33.2554 26.5673 33.2712 26.4505C33.1763 27.1517 32.9917 27.8397 32.7202 28.4931C32.765 28.3869 32.8098 28.2806 32.852 28.177C32.5804 28.8278 32.2245 29.4388 31.7999 29.9966C31.8685 29.9063 31.937 29.8186 32.0056 29.7283C31.5785 30.2834 31.0854 30.7802 30.5343 31.2105C30.624 31.1414 30.711 31.0723 30.8006 31.0033C30.2443 31.4336 29.6378 31.7895 28.9945 32.0631C29.0999 32.018 29.2054 31.9728 29.3082 31.9303C28.6596 32.2039 27.9793 32.3898 27.2806 32.4855C27.3966 32.4695 27.5153 32.4536 27.6313 32.4377C26.9958 32.5227 26.3551 32.5094 25.717 32.5094C24.7731 32.5094 23.8291 32.5094 22.8852 32.5094C21.6697 32.5094 20.4515 32.5094 19.236 32.5094C18.1576 32.5094 17.0791 32.5094 16.0007 32.5094C15.4707 32.5094 14.9434 32.5014 14.4134 32.5094C14.4055 32.5094 14.3976 32.5094 14.3897 32.5094C14.0522 32.5094 13.6962 32.6581 13.4563 32.8972C13.2269 33.1283 13.0555 33.5055 13.0713 33.8375C13.0871 34.1802 13.1979 34.5361 13.4563 34.7778C13.7147 35.0169 14.0311 35.1656 14.3897 35.1656C15.186 35.1656 15.9849 35.1656 16.7812 35.1656C18.4291 35.1656 20.0745 35.1656 21.7224 35.1656C23.0988 35.1656 24.4751 35.1656 25.8541 35.1656C26.0914 35.1656 26.3287 35.1656 26.5661 35.1656C27.2305 35.1656 27.9002 35.0859 28.5515 34.9505C29.2239 34.8097 29.8593 34.5706 30.4842 34.2891C31.0063 34.0553 31.502 33.7631 31.9634 33.4258C32.5039 33.0273 33.0181 32.5944 33.4663 32.095C34.3813 31.0723 35.0721 29.8823 35.494 28.5702C36.314 26.0175 35.9501 23.1063 34.55 20.8245C33.8408 19.6691 32.8995 18.6995 31.792 17.9266C31.233 17.5361 30.6319 17.2413 30.007 16.9809C29.4585 16.7525 28.8864 16.5798 28.301 16.4762C27.6287 16.3567 26.9589 16.3089 26.2787 16.3062C25.775 16.3062 25.2688 16.3062 24.7652 16.3036C23.1383 16.3009 21.5088 16.2983 19.882 16.2983C18.6638 16.2956 17.4483 16.2956 16.2301 16.293C16.1668 16.293 16.1009 16.293 16.0376 16.293C15.7001 16.293 15.3442 16.4417 15.1042 16.6808C14.8748 16.9119 14.7035 17.2891 14.7193 17.6211C14.7351 17.9638 14.8458 18.3197 15.1042 18.5614C15.3653 18.7898 15.6817 18.9412 16.0376 18.9412Z" />
</svg>
