<svg width="48" height="48" viewBox="0 0 48 48" xmlns="http://www.w3.org/2000/svg">
<path fill-rule="evenodd" clip-rule="evenodd" d="M24 47C36.7025 47 47 36.7025 47 24C47 11.2975 36.7025 1 24 1C11.2975 1 1 11.2975 1 24C1 36.7025 11.2975 47 24 47ZM24 48C37.2548 48 48 37.2548 48 24C48 10.7452 37.2548 0 24 0C10.7452 0 0 10.7452 0 24C0 37.2548 10.7452 48 24 48Z" />
<path fill-rule="evenodd" clip-rule="evenodd" d="M33.994 17.4744C34.0921 17.4436 34.2212 17.5053 34.3503 17.6749C34.3503 17.6749 34.3503 17.6749 40.1847 23.3604C40.5255 23.6997 40.5255 24.2137 40.1847 24.4656C40.1847 24.4656 40.1848 24.4656 34.3503 30.2385C34.2212 30.4081 34.0921 30.4492 33.994 30.3978C33.8959 30.3464 33.834 30.1973 33.834 29.9814V17.8446C33.834 17.6338 33.8959 17.5053 33.994 17.4744Z" />
<path fill-rule="evenodd" clip-rule="evenodd" d="M24.0138 8H24.4269L24.8245 8.1645C24.8245 8.1645 24.8245 8.1645 30.8293 14.107C31.0874 14.4463 30.9997 14.7033 30.5711 14.7033C30.5711 14.7033 30.5711 14.7033 28.0824 14.7033C27.6539 14.7033 27.3131 15.0426 27.3131 15.4692C27.3131 15.4692 27.3131 15.4692 27.3131 19.8798C27.3131 20.3065 26.9672 20.6458 26.4509 20.6458C26.4509 20.6458 26.4509 20.6458 22.0776 20.6458C21.6491 20.6458 21.3031 20.3065 21.3031 19.8798C21.3031 19.8798 21.3031 19.8798 21.3031 15.4692C21.3031 15.0426 20.9624 14.7033 20.5287 14.7033H17.8696C17.441 14.7033 17.3533 14.4463 17.6114 14.107C17.6114 14.107 17.6114 14.107 23.6214 8.1645L24.0138 8Z" />
<path fill-rule="evenodd" clip-rule="evenodd" d="M14.6063 17.3459C14.7148 17.3973 14.7819 17.5464 14.7819 17.7623V30.151C14.7819 30.3669 14.7148 30.4955 14.6063 30.5366C14.5031 30.5777 14.3533 30.5366 14.1778 30.4081C14.1778 30.4081 14.1778 30.4081 8.25558 24.4656C7.91481 24.2137 7.91481 23.6996 8.25558 23.3604C8.25558 23.3604 8.25558 23.3604 14.1778 17.5053C14.3533 17.3356 14.5031 17.2945 14.6063 17.3459Z" />
<path fill-rule="evenodd" clip-rule="evenodd" d="M22.0772 27.0977C22.0772 27.0977 22.0772 27.0977 26.4505 27.0977C26.9668 27.0977 27.3127 27.4369 27.3127 27.8636C27.3127 27.8636 27.3127 27.8636 27.3127 32.5312C27.3127 33.0401 27.6535 33.3794 28.082 33.3794H30.4003C30.8289 33.3794 30.9993 33.6313 30.6585 33.8883C30.6585 33.8883 30.6585 33.8883 24.824 39.7434C24.6485 39.9131 24.4368 40.0005 24.22 40.0005C24.0083 40.0005 23.7914 39.9131 23.621 39.7434C23.621 39.7434 23.621 39.7434 17.7866 33.8883C17.4406 33.6313 17.611 33.3794 18.0396 33.3794C18.0396 33.3794 18.0396 33.3794 20.5282 33.3794C20.962 33.3794 21.3027 33.0401 21.3027 32.5312C21.3027 32.5312 21.3027 32.5312 21.3027 27.8636C21.3027 27.4369 21.6487 27.0977 22.0772 27.0977Z" />
</svg>
