<svg width="48" height="48" viewBox="0 0 48 48" xmlns="http://www.w3.org/2000/svg">
<path fill-rule="evenodd" clip-rule="evenodd" d="M24 47C36.7025 47 47 36.7025 47 24C47 11.2975 36.7025 1 24 1C11.2975 1 1 11.2975 1 24C1 36.7025 11.2975 47 24 47ZM24 48C37.2548 48 48 37.2548 48 24C48 10.7452 37.2548 0 24 0C10.7452 0 0 10.7452 0 24C0 37.2548 10.7452 48 24 48Z" />
<path d="M14.9865 27.29H17.0865C16.9065 27.83 16.8165 28.4 16.8165 29C16.8165 32.48 19.4565 35.39 24.3765 35.39C28.9665 35.39 31.5165 33.02 32.0865 29.39H28.5765C28.0965 31.52 26.5065 32.27 24.3765 32.27C22.0065 32.27 20.2965 31.13 20.2965 28.85C20.2965 28.28 20.3865 27.77 20.5665 27.29H33.0165V25.4H14.9865V27.29ZM14.9865 21.5V23.39H33.0165V21.5H30.9165C31.1865 20.9 31.3365 20.24 31.3365 19.55C31.3365 16.34 28.8165 13.58 24.3765 13.58C20.2965 13.58 17.5965 15.8 17.2065 19.25H20.6565C21.0165 17.57 22.1865 16.7 24.3465 16.7C26.3865 16.7 27.8865 17.69 27.8865 19.73C27.8865 20.54 27.6465 21.05 27.3765 21.5H14.9865Z" />
</svg>
