<svg width="27" height="24" viewBox="0 0 27 24" xmlns="http://www.w3.org/2000/svg">
<path fill-rule="evenodd" clip-rule="evenodd" d="M4.0981 4.08802C2.63447 5.66355 2.63277 8.27433 4.10017 9.85713L13.1207 19.5895C14.2995 18.3206 15.4781 17.0519 16.6566 15.7832C18.4878 13.812 20.3189 11.8409 22.1509 9.86897C23.6161 8.29168 23.6163 5.67982 22.1509 4.10208M24.3488 11.9108C22.5217 13.8774 20.6946 15.8443 18.8674 17.8112C17.6335 19.1394 16.3996 20.4677 15.1657 21.7959C14.4832 22.5306 13.8007 23.2653 13.1181 24L1.90016 11.8967C0.303033 10.174 -0.287759 7.79136 0.129602 5.58195C0.373933 4.28852 0.963775 3.05446 1.89949 2.04691L1.89983 2.04588C3.49885 0.325415 5.71286 -0.310057 7.76581 0.139897C8.96784 0.403353 10.1147 1.03885 11.0508 2.04639L13.1307 4.28503L15.1974 2.06025C17.7326 -0.668568 21.8141 -0.6683 24.3488 2.06025C26.8836 4.78907 26.8836 9.18224 24.3488 11.9108ZM4.0981 4.08802C5.44705 2.67973 7.51826 2.6517 8.85293 4.08831L13.1308 8.69272L17.3952 4.10218C18.7436 2.65096 20.8029 2.6512 22.1509 4.10208" />
</svg>
