<svg width="27" height="24" viewBox="0 0 27 24" xmlns="http://www.w3.org/2000/svg">
<path fill-rule="evenodd" clip-rule="evenodd" d="M2.68173 2.67416L2.63281 2.72682C0.455096 5.07104 0.456135 8.86829 2.6335 11.2169L13.119 22.5299C14.7922 20.7288 16.4652 18.9278 18.1382 17.1269C19.9642 15.1613 21.7901 13.1958 23.6162 11.2302C25.7945 8.88538 25.7945 5.08597 23.6161 2.74085C21.477 0.438189 18.0696 0.437931 15.93 2.74088V2.74088L13.1307 5.75428L10.3182 2.72706C8.19536 0.442128 4.82413 0.424418 2.68173 2.67416ZM4.23619 0.430613C6.53043 -0.482282 9.20189 0.0563188 11.0508 2.04641L13.1307 4.28505L15.1974 2.06028C17.7326 -0.668545 21.8141 -0.668277 24.3488 2.06028C26.8836 4.7891 26.8836 9.18227 24.3488 11.9108C22.5217 13.8775 20.6946 15.8443 18.8674 17.8112C17.1785 19.6293 15.4896 21.4473 13.8007 23.2653C13.5732 23.5102 13.3456 23.7551 13.1181 24L1.90016 11.8968C-0.269647 9.5563 -0.582051 5.99787 0.967501 3.31053C1.22624 2.8618 1.5369 2.43736 1.89949 2.04694L1.89983 2.04591V2.04591C2.58582 1.30782 3.38515 0.769246 4.23619 0.430613Z" />
</svg>
