<svg width="23" height="26" viewBox="0 0 23 26" xmlns="http://www.w3.org/2000/svg">
<path fill-rule="evenodd" clip-rule="evenodd" d="M3.72019 4.61664C3.20607 3.96029 3.67369 3 4.50743 3H18.7337C19.5674 3 20.035 3.96029 19.5209 4.61664L13.5 12.3034C13.3621 12.4794 13.2872 12.6965 13.2872 12.92V21C13.2872 21.824 12.3465 22.2944 11.6872 21.8L10.3539 20.8C10.3358 20.7864 10.3182 20.7722 10.3011 20.7575C10.2964 20.7535 10.2918 20.7495 10.2872 20.7454C10.0761 20.5566 9.95389 20.2859 9.95389 20V12.92C9.95389 12.6965 9.87898 12.4794 9.74113 12.3034L3.72019 4.61664ZM4.50743 0H18.7337C22.0686 0 23.9391 3.84114 21.8827 6.46656L16.2872 13.6101V21C16.2872 24.2962 12.5242 26.1777 9.88722 24.2L8.55389 23.2C7.54666 22.4446 6.95389 21.259 6.95389 20V13.6101L1.35845 6.46657C-0.697999 3.84116 1.17247 0 4.50743 0Z" />
</svg>
