<svg width="100" height="100" viewBox="0 0 100 100" fill="none" xmlns="http://www.w3.org/2000/svg">
<path d="M49.9693 25C45.2454 25 41.5644 26.5131 38.9877 29.4704C36.411 32.4278 35.0613 36.1417 35 40.7497H43.773C43.8957 35.9354 46.0429 33.5282 50.2147 33.5282C53.9571 33.5282 56.1043 36.0729 56.1043 39.3741C56.1043 40.4746 56.0429 41.2999 55.5521 42.1939C55.0614 43.0193 55.1227 43.3631 54.1411 44.2572C53.2209 45.0825 53.3436 45.0138 52.0552 46.0454L50.8896 47.0083C48.6196 48.8652 47.0859 50.5846 46.1656 52.1664C45.3068 53.7483 44.8773 55.8116 44.8773 58.425V60.2132H53.6503V58.425C53.6503 55.6052 54.5706 54.5048 57.5767 52.0977C59.2331 50.7909 60.5215 49.6905 61.3804 48.7964C62.3006 47.9023 63.0982 46.6644 63.8344 45.0138C64.6319 43.2944 65 41.4374 65 39.3054C65 30.8459 59.7239 25 49.9693 25ZM53.8957 64.5461H44.5092V75H53.8957V64.5461Z" fill="black"/>
<path fill-rule="evenodd" clip-rule="evenodd" d="M50 95C74.8528 95 95 74.8528 95 50C95 25.1472 74.8528 5 50 5C25.1472 5 5 25.1472 5 50C5 74.8528 25.1472 95 50 95ZM50 100C77.6142 100 100 77.6142 100 50C100 22.3858 77.6142 0 50 0C22.3858 0 0 22.3858 0 50C0 77.6142 22.3858 100 50 100Z" fill="black"/>
</svg>
