<svg width="30" height="30" viewBox="0 0 30 30" fill="none" xmlns="http://www.w3.org/2000/svg">
<path d="M15 0C6.7 0 0 6.7 0 15C0 23.3 6.7 30 15 30C23.3 30 30 23.3 30 15C30 6.7 23.3 0 15 0ZM21.5 18.25C21.45 19.05 21.35 19.45 21.2 19.75C21.05 20.1 20.9 20.4 20.6 20.65C20.3 20.95 20.05 21.1 19.7 21.25C19.4 21.35 19 21.5 18.2 21.5C17.35 21.55 17.1 21.55 14.95 21.55C12.8 21.55 12.55 21.55 11.7 21.5C10.9 21.45 10.5 21.35 10.2 21.25C9.8 21.1 9.55 20.95 9.3 20.65C9.05 20.35 8.85 20.1 8.7 19.75C8.6 19.45 8.45 19.05 8.4 18.25C8.35 17.4 8.35 17.15 8.35 15C8.35 12.85 8.35 12.6 8.4 11.75C8.45 10.95 8.55 10.55 8.7 10.25C8.85 9.9 9 9.6 9.3 9.35C9.6 9.1 9.85 8.9 10.2 8.75C10.5 8.65 10.9 8.5 11.7 8.45C12.45 8.4 12.7 8.4 14.2 8.4H15C17.15 8.4 17.4 8.4 18.25 8.45C19.05 8.5 19.45 8.6 19.75 8.75C20.1 8.9 20.4 9.05 20.65 9.35C20.95 9.65 21.1 9.9 21.25 10.25C21.35 10.55 21.5 10.95 21.55 11.75C21.6 12.6 21.6 12.85 21.6 15C21.6 17.15 21.55 17.4 21.5 18.25Z" fill="black"/>
<path d="M20.2496 10.7498C20.2496 11.2998 19.7996 11.6998 19.2996 11.6998C18.7996 11.6998 18.3496 11.2498 18.3496 10.7498C18.3496 10.2498 18.7996 9.7998 19.2996 9.7998C19.7996 9.7998 20.2496 10.1998 20.2496 10.7498Z" fill="black"/>
<path d="M15.0004 10.8994C12.7504 10.8994 10.9004 12.7494 10.9004 14.9994C10.9004 17.2494 12.7504 19.0994 15.0004 19.0994C17.2504 19.0994 19.1004 17.2494 19.1004 14.9994C19.1004 12.7494 17.2504 10.8994 15.0004 10.8994ZM15.0004 17.6494C13.5504 17.6494 12.3504 16.4494 12.3504 14.9994C12.3504 13.4994 13.5504 12.3494 15.0004 12.3494C16.5004 12.3494 17.6504 13.5494 17.6504 14.9994C17.6504 16.4494 16.5004 17.6494 15.0004 17.6494Z" fill="black"/>
</svg>
