<svg width="15" height="16" viewBox="0 0 15 16" xmlns="http://www.w3.org/2000/svg">
<path d="M12.4743 5.50216H9.79269L10.3955 2.35638C10.5134 1.71154 10.3072 1.04972 9.84403 0.585943C9.38067 0.122064 8.71941 -0.0849259 8.07429 0.0321126C7.42932 0.149008 6.88274 0.575116 6.61187 1.17205L4.58027 5.50212H0V15.9999H11.8114C12.3487 16.006 12.8701 15.8177 13.2792 15.4696C13.6884 15.1213 13.9577 14.6368 14.0375 14.1055L14.7005 7.97328C14.7766 7.34036 14.5755 6.70548 14.149 6.2319C13.7223 5.75814 13.1118 5.49217 12.4743 5.50216ZM4.13314 14.7734H1.22649V6.72861H4.1363L4.13314 14.7734ZM13.4856 7.80648V7.84139L12.8208 13.9523C12.7776 14.1868 12.6523 14.3982 12.4673 14.5487C12.2823 14.6991 12.0499 14.7788 11.8114 14.7734H5.35967V6.72861L5.69023 6.02341L7.72674 1.68001C7.7882 1.54505 7.88716 1.43061 8.01186 1.3504C8.13669 1.27033 8.28179 1.22776 8.43019 1.22803C8.65905 1.22653 8.8764 1.32837 9.02193 1.50522C9.16798 1.67618 9.22985 1.90367 9.19057 2.12514L8.58841 5.27162L8.30877 6.72857H12.4745C12.776 6.72597 13.0638 6.85423 13.2636 7.08007C13.4399 7.27841 13.5209 7.54353 13.4856 7.80648Z" />
</svg>
