<svg width="15" height="16" viewBox="0 0 15 16" xmlns="http://www.w3.org/2000/svg">
<path fill-rule="evenodd" clip-rule="evenodd" d="M9.79273 5.50215H12.4743C13.1118 5.49217 13.7224 5.75814 14.149 6.2319C14.5755 6.70548 14.7766 7.34036 14.7005 7.97328L14.0376 14.1055C13.9578 14.6368 13.6884 15.1213 13.2793 15.4696C12.8701 15.8177 12.3487 16.006 11.8115 15.9999L4.58078 15.9999L4.58078 5.50111L6.61191 1.17205C6.88278 0.575114 7.42936 0.149005 8.07433 0.0321102C8.71944 -0.0849284 9.38071 0.122062 9.84406 0.585941C10.3073 1.04972 10.5134 1.71154 10.3955 2.35637L9.79273 5.50215ZM3.18753 5.50212L3.18753 15.9999H3.24249e-05L3.24249e-05 5.50212H3.18753Z"/>
</svg>
