<svg width="32" height="18" viewBox="0 0 32 18" xmlns="http://www.w3.org/2000/svg">
<path fill-rule="evenodd" clip-rule="evenodd" d="M9.04237 12.1842L12.1842 15.326V12.274L13.5704 12.1686C16.3273 11.9589 18.5 9.65351 18.5 6.84211C18.5 3.89174 16.1083 1.5 13.1579 1.5H6.8421C3.89174 1.5 1.5 3.89174 1.5 6.84211C1.5 9.79247 3.89174 12.1842 6.8421 12.1842H9.04237ZM0 6.84211C0 3.06332 3.06331 0 6.8421 0H13.1579C16.9367 0 20 3.06332 20 6.84211C20 10.4438 17.2171 13.3955 13.6842 13.6643V16.5332C13.6842 17.4241 12.6071 17.8702 11.9771 17.2403L8.42105 13.6842H6.8421C3.06331 13.6842 0 10.6209 0 6.84211Z" />
<path d="M31.1522 9.6044H22.8369C22.3745 9.6044 22 9.2299 22 8.76753C22 8.30516 22.3745 7.93066 22.8369 7.93066H31.1522C31.6146 7.93066 31.9891 8.30516 31.9891 8.76753C31.9891 9.2299 31.6146 9.6044 31.1522 9.6044Z" />
<path d="M26.9951 13.7626C26.5327 13.7626 26.1582 13.3881 26.1582 12.9257V4.60933C26.1582 4.14696 26.5327 3.77246 26.9951 3.77246C27.4574 3.77246 27.8319 4.14696 27.8319 4.60933V12.9257C27.8319 13.3881 27.4574 13.7626 26.9951 13.7626Z" />
</svg>
