<svg width="24" height="18" viewBox="0 0 24 18" xmlns="http://www.w3.org/2000/svg">
<path fill-rule="evenodd" clip-rule="evenodd" d="M9.0003 0C13.9707 0 18 2.2389 18 5.0001C18 6.0966 20.3583 7.7043 24 7.9608V17.9676C20.9415 17.7795 18.3477 16.7394 16.998 15.2862C15.5037 16.8966 12.4863 18 9.0003 18C4.0293 18 0 15.7617 0 13.0002V5.0001C0 2.2389 4.0293 0 9.0003 0ZM14.0001 14.9835C15.2694 14.3772 15.9999 13.6095 15.9999 13.0002H15.9996V8.1396C14.3493 9.2736 11.8287 10.0002 9 10.0002C6.1704 10.0002 3.6495 9.2736 1.9995 8.1396V13.0002C1.9995 13.6095 2.7291 14.376 3.9996 14.9835V12.3162C4.6356 12.501 5.3043 12.6474 5.9997 12.7578V15.666C6.6108 15.8082 7.2801 15.9099 7.9998 15.9606V12.9684C8.3301 12.9849 8.6616 12.9996 9.0003 12.9996C9.3387 12.9996 9.6696 12.9852 9.9999 12.9684V15.9606C10.7196 15.9102 11.3886 15.8085 12 15.6669V12.7587C12.6951 12.6474 13.3644 12.5007 14.0001 12.3174V14.9835ZM1.9998 5.0001C1.9998 6.1941 4.7919 8.0001 9.0003 8.0001C13.2078 8.0001 15.9999 6.1941 15.9999 5.0001C15.9999 3.8058 13.2078 2.0001 9.0003 2.0001C4.7919 2.0001 1.9998 3.8058 1.9998 5.0001ZM18 13.0002C18 13.878 19.5285 15.0723 21.9999 15.6495V9.7089C20.418 9.3966 19.035 8.8518 18 8.1396V13.0002ZM11.998 5.00078C11.998 5.69102 10.6549 6.25058 8.99805 6.25058C7.34119 6.25058 5.99805 5.69102 5.99805 5.00078C5.99805 4.31053 7.34119 3.75098 8.99805 3.75098C10.6549 3.75098 11.998 4.31053 11.998 5.00078Z" />
</svg>
