<svg width="25" height="25" viewBox="0 0 25 25" xmlns="http://www.w3.org/2000/svg">
<path fill-rule="evenodd" clip-rule="evenodd" d="M15.7881 6.02916C18.4988 8.73991 18.4988 13.1349 15.7881 15.8457C13.0773 18.5564 8.6823 18.5564 5.97154 15.8457C3.26079 13.1349 3.26079 8.73991 5.97154 6.02916C8.6823 3.31841 13.0773 3.31841 15.7881 6.02916ZM18.9364 16.7641C21.7546 12.8774 21.4123 7.41074 17.9094 3.90784C14.027 0.0255119 7.73255 0.0255119 3.85022 3.90784C-0.0321053 7.79017 -0.0321053 14.0847 3.85022 17.967C7.35662 21.4734 12.8307 21.8129 16.7181 18.9856L22.7269 24.9943L24.9468 22.7745L18.9364 16.7641Z" />
</svg>
