<svg xmlns="http://www.w3.org/2000/svg" width="18" height="18" viewBox="0 0 18 18">
  <path d="M15.3639844,11.6360156 C14.3837227,10.6557891 13.216957,9.93012891 11.9439492,9.49085156 C13.3073789,8.55179297 14.203125,6.98020313 14.203125,5.203125 C14.203125,2.33412891 11.8689961,0 9,0 C6.13100391,0 3.796875,2.33412891 3.796875,5.203125 C3.796875,6.98020313 4.69262109,8.55179297 6.05608594,9.49085156 C4.78307812,9.93012891 3.6163125,10.6557891 2.63605078,11.6360156 C0.936175781,13.3359258 0,15.5960156 0,18 L1.40625,18 C1.40625,13.8127852 4.81278516,10.40625 9,10.40625 C13.1872148,10.40625 16.59375,13.8127852 16.59375,18 L18,18 C18,15.5960156 17.0638242,13.3359258 15.3639844,11.6360156 Z M9,9 C6.90641016,9 5.203125,7.29675 5.203125,5.203125 C5.203125,3.1095 6.90641016,1.40625 9,1.40625 C11.0935898,1.40625 12.796875,3.1095 12.796875,5.203125 C12.796875,7.29675 11.0935898,9 9,9 Z"/>
</svg>
