<svg xmlns="http://www.w3.org/2000/svg" width="100" height="61" viewBox="0 0 100 61">
  <g fill="#E6E6E6" fill-rule="evenodd">
    <path fill-rule="nonzero" d="M30.1530409 55.3595424C33.5689798 51.8477601 35.2980353 47.616697 35.2980353 42.6240426 35.2980353 37.6313882 33.5689798 33.4003252 30.1530409 29.8885428 26.737102 26.3767605 22.5620656 24.6420246 17.6279316 24.6420246 12.6937976 24.6420246 8.51876121 26.3767605 5.10282231 29.8885428 1.68688341 33.4003252 0 37.6313882 0 42.6240426 0 47.616697 1.68688341 51.8477601 5.10282231 55.3595424 8.51876121 58.8713248 12.6937976 60.6060606 17.6279316 60.6060606 22.5198935 60.6060606 26.6949299 58.8713248 30.1530409 55.3595424zM26.6949299 51.974692C24.3332932 54.5133298 21.296903 55.7826487 17.6279316 55.7826487 13.9589602 55.7826487 10.9647421 54.5133298 8.60310538 51.974692 6.24146861 49.4360541 5.06065022 46.3473781 5.06065022 42.6240426 5.06065022 38.9430178 6.24146861 35.8543417 8.60310538 33.3580145 10.9647421 30.8616873 13.9589602 29.5923684 17.6279316 29.5923684 21.296903 29.5923684 24.2911211 30.8616873 26.6949299 33.3580145 29.0565667 35.8543417 30.2373851 38.9430178 30.2373851 42.6240426 30.2373851 46.3473781 29.0565667 49.4783648 26.6949299 51.974692zM94.7551055 55.3595424C98.1710444 51.8477601 99.9000999 47.616697 99.9000999 42.6240426 99.9000999 37.6313882 98.1710444 33.4003252 94.7551055 29.8885428 91.3391666 26.3767605 87.1641302 24.6420246 82.2299962 24.6420246 77.2958622 24.6420246 73.1208258 26.3767605 69.7048869 29.8885428 66.288948 33.4003252 64.6020646 37.6313882 64.6020646 42.6240426 64.6020646 47.616697 66.288948 51.8477601 69.7048869 55.3595424 73.1208258 58.8713248 77.2958622 60.6060606 82.2299962 60.6060606 87.1641302 60.6060606 91.2969945 58.8713248 94.7551055 55.3595424zM91.2969945 51.974692C88.9353578 54.5133298 85.8989676 55.7826487 82.2299962 55.7826487 78.5610248 55.7826487 75.5668067 54.5133298 73.20517 51.974692 70.8435332 49.4360541 69.6627148 46.3473781 69.6627148 42.6240426 69.6627148 38.9430178 70.8435332 35.8543417 73.20517 33.3580145 75.5668067 30.8616873 78.5610248 29.5923684 82.2299962 29.5923684 85.8989676 29.5923684 88.8931857 30.8616873 91.2969945 33.3580145 93.6586313 35.8543417 94.8394497 38.9430178 94.8394497 42.6240426 94.8394497 46.3473781 93.6586313 49.4783648 91.2969945 51.974692z"/>
    <g transform="translate(14.652)">
      <path fill-rule="nonzero" d="M66.0265207 43.0644827C66.4900126 44.1589857 67.7119456 44.6641409 68.8917431 44.369467 70.0715405 44.0326969 70.6614392 42.8540013 70.3243543 41.8015946L67.1641826 32.3720305C65.5208933 32.456223 64.0882821 32.8771857 62.866349 33.5928223L66.0265207 43.0644827zM.589898718 43.3591566C.926983699 43.9906006 1.76969615 44.3273707 2.48600174 44.3273707L12.8513649 44.3273707C12.9777718 43.6538304 13.0199074 42.9802902 13.0199074 42.2646536 13.0199074 41.549017 12.9777718 40.8754767 12.8513649 40.2440327L6.02539404 40.2440327 9.22770137 34.18217C8.04790393 33.2560521 6.74169963 32.7088006 5.22481721 32.456223L.421356227 41.4648245C.0842712454 42.0962685.210678113 42.8119051.589898718 43.3591566zM8.42712454 7.24055818L12.8092293 7.24055818 15.4216379 13.176132 10.5339057 22.6477925C11.9243812 23.1529477 13.2305855 23.7843917 14.4525186 24.6263171L17.6969615 18.3960693 20.9835401 25.7629163C22.1212019 24.920991 23.3009993 24.2474507 24.565068 23.6581029L20.772862 15.2809455 56.2510563 15.2809455 56.50387 15.9123895 45.675015 25.6787238C46.6862699 26.7732268 47.4447111 27.9940186 47.9503386 29.3410992L58.1892949 20.0799201 59.2848211 23.1950439C60.633161 22.5635999 62.1079078 22.100541 63.5826546 21.8058671 62.866349 19.8273425 61.9393653 17.1752776 61.3916022 15.6598119L61.3916022 15.5335231C59.2426855 9.51375668 57.5993962 4.63058954 57.5993962 4.63058954 56.8830906 3.03093133 54.5234958.210481343 50.478476.210481343L45.0851163.210481343C43.778912.210481343 43.778912 1.17869552 43.778912 2.2731985 43.778912 3.45189402 43.9053188 4.33591566 45.0851163 4.33591566L50.4363404 4.33591566C52.3324434 4.33591566 53.3015627 5.85138132 53.4279696 6.18815147L55.1976657 11.1555112 19.5087933 11.1555112 17.7390971 7.28265445 22.8375075 7.28265445C24.1437118 7.28265445 25.1128311 6.31444028 25.1128311 5.2199373 25.1128311 4.04124178 24.0594406 3.15722014 22.8375075 3.15722014L8.42712454 3.15722014C7.12092023 3.15722014 7.12092023 4.12543431 7.12092023 5.2199373 7.12092023 6.39863281 7.2473271 7.24055818 8.42712454 7.24055818z"/>
      <path d="M20.8420111,25.4682424 L28.6166591,41.6406849 C29.3345224,43.1339492 31.1269956,43.7625358 32.6202598,43.0446725 C32.8783291,42.9206097 33.1173076,42.7602389 33.329922,42.5684409 L48.3195237,29.0464253 L46.6285998,24.8367984 L34.7757358,35.628372 C33.550599,36.7438117 31.6531868,36.6548846 30.5377471,35.4297477 C30.3496775,35.2231825 30.1913815,34.9913612 30.0674467,34.7410024 L24.4352243,23.363429 L20.8420111,25.4682424 Z"/>
    </g>
  </g>
</svg>
