<svg width="59" height="24" viewBox="0 0 59 24" fill="none" xmlns="http://www.w3.org/2000/svg">
<path d="M10.687 3.0942C10.0019 3.90485 8.90579 4.54424 7.80969 4.4529C7.67268 3.3568 8.20931 2.1922 8.83729 1.47288C9.52235 0.639391 10.7212 0.0456708 11.6917 0C11.8059 1.14177 11.3606 2.2607 10.687 3.0942ZM11.6803 4.66984C10.0932 4.5785 8.73453 5.57184 7.98096 5.57184C7.21597 5.57184 6.06278 4.71551 4.80684 4.73834C3.17411 4.76118 1.65555 5.68601 0.822061 7.1589C-0.890594 10.1047 0.376771 14.4662 2.03234 16.8639C2.84299 18.0514 3.8135 19.353 5.09228 19.3073C6.30256 19.2617 6.7821 18.5195 8.24356 18.5195C9.71645 18.5195 10.1389 19.3073 11.4177 19.2845C12.7421 19.2617 13.5756 18.0971 14.3863 16.9096C15.3111 15.5623 15.6879 14.2493 15.7107 14.1808C15.6879 14.1579 13.1532 13.1874 13.1303 10.2645C13.1075 7.82112 15.1284 6.65652 15.2198 6.58801C14.078 4.89819 12.2968 4.71551 11.6803 4.66984ZM20.8487 1.35871V19.1589H23.6118V13.0733H27.4367C30.9305 13.0733 33.3853 10.6755 33.3853 7.20457C33.3853 3.73359 30.9762 1.35871 27.5281 1.35871H20.8487ZM23.6118 3.68792H26.7973C29.195 3.68792 30.5652 4.9667 30.5652 7.21598C30.5652 9.46527 29.195 10.7555 26.7859 10.7555H23.6118V3.68792ZM38.432 19.2959C40.1674 19.2959 41.7773 18.4167 42.5081 17.0238H42.5652V19.1589H45.1227V10.2988C45.1227 7.72978 43.0675 6.07421 39.9048 6.07421C36.9705 6.07421 34.8011 7.75262 34.7212 10.059H37.2103C37.4158 8.96289 38.432 8.24358 39.8249 8.24358C41.5147 8.24358 42.4624 9.0314 42.4624 10.4814V11.4634L39.0143 11.6689C35.8059 11.863 34.0704 13.176 34.0704 15.4596C34.0704 17.7659 35.863 19.2959 38.432 19.2959ZM39.1741 17.1836C37.7012 17.1836 36.765 16.4757 36.765 15.3911C36.765 14.2721 37.667 13.6213 39.391 13.5186L42.4624 13.3245V14.3292C42.4624 15.9962 41.0466 17.1836 39.1741 17.1836ZM48.5366 24C51.2312 24 52.4986 22.9724 53.6061 19.8554L58.4586 6.24548H55.6498L52.3958 16.7612H52.3387L49.0847 6.24548H46.196L50.8773 19.2046L50.6261 19.9924C50.2036 21.3283 49.5185 21.8421 48.2969 21.8421C48.0799 21.8421 47.6575 21.8192 47.4862 21.7964V23.9315C47.646 23.9772 48.3311 24 48.5366 24Z" fill="black"/>
</svg>
