<svg width="100" height="102" viewBox="0 0 100 102" fill="none" xmlns="http://www.w3.org/2000/svg">
<rect x="1.5" y="23.4995" width="97.0009" height="77.0007" stroke="black" stroke-width="3"/>
<path d="M28.5725 36.2868L28.5725 14C28.5725 7.37259 33.9451 2 40.5725 2H59.431C66.0585 2 71.431 7.37258 71.431 14V36.2868" stroke="black" stroke-width="3"/>
<path d="M31.2856 60.8909H33.7719V61.9838C34.2099 61.2012 35.2206 60.6885 36.6154 60.6885C39.1489 60.6885 40.9277 62.0985 40.9277 64.3922C40.9277 66.6859 39.1489 68.0958 36.6154 68.0958C35.2206 68.0958 34.2031 67.5831 33.7719 66.8006V71.4825H31.2856V60.8909ZM33.772 64.3922C33.772 65.4244 34.4323 66.2542 36.1101 66.2542C37.7879 66.2542 38.4482 65.4244 38.4482 64.3922C38.4482 63.3735 37.7879 62.5303 36.1101 62.5303C34.4323 62.5303 33.772 63.3735 33.772 64.3922Z" fill="black"/>
<path d="M51.3105 67.8929H48.8242V66.8001C48.393 67.5826 47.3756 68.0954 45.9808 68.0954C43.4473 68.0954 41.6685 66.6854 41.6685 64.3917C41.6685 62.098 43.4472 60.688 45.9808 60.688C47.3756 60.688 48.3863 61.2007 48.8242 61.9833V60.8903H51.3105V67.8929ZM48.8242 64.3917C48.8242 63.373 48.1639 62.5297 46.4862 62.5297C44.8084 62.5297 44.1481 63.373 44.1481 64.3917C44.1481 65.4238 44.8084 66.2537 46.4862 66.2537C48.1639 66.2536 48.8242 65.4238 48.8242 64.3917Z" fill="black"/>
<path d="M58.8032 62.921C58.6482 62.8467 58.4798 62.7861 58.2979 62.7253C57.9812 62.6241 57.5432 62.5297 57.011 62.5297C55.6364 62.5297 55.0771 63.2583 55.0771 64.6413V67.8929H52.5908V60.8903H55.0771V61.7808C55.4005 61.3491 56.0743 60.688 57.6982 60.688C58.3923 60.688 58.9043 60.8094 59.2749 60.9376C59.4838 61.0118 59.6725 61.0994 59.8274 61.1872L58.8032 62.921Z" fill="black"/>
<path d="M66.1479 60.8902H69.4833L65.6898 63.7979L69.4833 67.8929H66.4647L63.9312 65.1471L62.9879 65.869V67.8929H60.5015V57.6655H62.9879V63.3121L66.1479 60.8902Z" fill="black"/>
<path d="M79.3189 67.8929H76.8325V66.8001C76.4013 67.5826 75.3839 68.0954 73.9891 68.0954C71.4556 68.0954 69.6768 66.6854 69.6768 64.3917C69.6768 62.098 71.4556 60.688 73.9891 60.688C75.3839 60.688 76.3946 61.2007 76.8325 61.9833V60.8903H79.3189V67.8929ZM76.8325 64.3917C76.8325 63.373 76.1722 62.5297 74.4945 62.5297C72.8167 62.5297 72.1564 63.373 72.1564 64.3917C72.1564 65.4238 72.8167 66.2537 74.4945 66.2537C76.1722 66.2536 76.8325 65.4238 76.8325 64.3917Z" fill="black"/>
<path d="M87.1013 62.9547C86.8789 62.8805 86.6363 62.8063 86.3601 62.7456C85.8952 62.6376 85.2349 62.5297 84.46 62.5297C83.5167 62.5297 82.9777 62.6376 82.9777 62.9547C82.9777 63.1908 83.5976 63.3055 84.6015 63.4607C87.0204 63.8183 88.4556 64.2432 88.4556 65.8556C88.4556 67.6906 86.2522 68.0954 84.1905 68.0954C82.7014 68.0954 81.7042 67.8929 81.0775 67.6838C80.7069 67.5624 80.4172 67.4207 80.1948 67.2656L81.2729 65.6937C81.502 65.8016 81.758 65.8962 82.041 65.9771C82.5261 66.1188 83.2134 66.2537 84.0556 66.2537C85.255 66.2537 85.9692 66.139 85.9692 65.7207C85.9692 65.4307 85.3628 65.3564 84.0489 65.1743C81.374 64.8167 80.4913 64.1286 80.4913 62.8873C80.4913 61.5717 81.5828 60.688 84.1905 60.688C85.5718 60.688 86.5623 60.8566 87.2158 61.0388C87.5999 61.14 87.9166 61.2547 88.1794 61.3828L87.1013 62.9547Z" fill="black"/>
<path d="M19.8341 59.0903C16.9669 59.0903 14.6347 61.4257 14.6347 64.2965H11.5479C11.5479 59.7217 15.265 56 19.8341 56V59.0903Z" fill="black"/>
<path d="M28.1202 64.297C28.1202 68.8714 24.4034 72.5931 19.8342 72.5931V69.5028C22.7011 69.5028 25.0337 67.1674 25.0337 64.2969H28.1202V64.297Z" fill="black"/>
<path d="M19.8361 66.4103C21.0018 66.4103 21.9469 65.4641 21.9469 64.2969C21.9469 63.1298 21.0018 62.1836 19.8361 62.1836C18.6704 62.1836 17.7253 63.1298 17.7253 64.2969C17.7253 65.4641 18.6704 66.4103 19.8361 66.4103Z" fill="black"/>
</svg>
