<svg width="61" height="24" viewBox="0 0 61 24" fill="none" xmlns="http://www.w3.org/2000/svg">
<g clip-path="url(#clip0_100_3032)">
<path d="M28.5843 11.7249V18.7601H26.3525V1.3863H32.2717C32.9783 1.37154 33.6807 1.49685 34.3386 1.755C34.9965 2.01315 35.5967 2.39903 36.1047 2.89037C36.6177 3.35188 37.0261 3.91787 37.3023 4.5503C37.5784 5.18273 37.716 5.86696 37.7058 6.55698C37.7205 7.2507 37.585 7.93939 37.3086 8.57585C37.0323 9.21231 36.6216 9.78149 36.1047 10.2444C35.0696 11.2314 33.792 11.7244 32.2717 11.7235H28.5843V11.7249ZM28.5843 3.52527V9.59008H32.3272C32.7375 9.60224 33.1458 9.52863 33.5261 9.37395C33.9063 9.21927 34.2501 8.98693 34.5354 8.69179C34.8193 8.41584 35.0449 8.08578 35.1989 7.72113C35.353 7.35647 35.4324 6.96463 35.4324 6.56876C35.4324 6.1729 35.353 5.78105 35.1989 5.4164C35.0449 5.05174 34.8193 4.72168 34.5354 4.44573C34.2537 4.14438 33.9111 3.90634 33.5304 3.74741C33.1497 3.58849 32.7395 3.51229 32.3272 3.52388H28.5843V3.52527Z" fill="#5F6368"/>
<path d="M42.8487 6.48486C44.4984 6.48486 45.8005 6.92569 46.7552 7.80734C47.7098 8.68899 48.1867 9.89779 48.1858 11.4337V18.76H46.051V17.1104H45.9539C45.0298 18.4689 43.8006 19.1482 42.2665 19.1482C40.957 19.1482 39.8614 18.76 38.9797 17.9837C38.5566 17.6274 38.2184 17.1812 37.9896 16.6776C37.7608 16.174 37.6473 15.6257 37.6573 15.0726C37.6573 13.8426 38.1221 12.8643 39.0518 12.138C39.9815 11.4116 41.2227 11.0474 42.7753 11.0456C44.1005 11.0456 45.1919 11.2882 46.0496 11.7734V11.2632C46.0521 10.8862 45.9707 10.5133 45.8112 10.1717C45.6518 9.82999 45.4183 9.52809 45.1277 9.28784C44.5375 8.75536 43.7683 8.46482 42.9735 8.47412C41.7268 8.47412 40.7403 8.99997 40.0139 10.0517L38.0482 8.81375C39.1294 7.26116 40.7296 6.48486 42.8487 6.48486ZM39.9612 15.1211C39.9597 15.4052 40.0261 15.6855 40.1549 15.9387C40.2836 16.1919 40.471 16.4106 40.7014 16.5767C41.1951 16.965 41.8077 17.1707 42.4356 17.1589C43.3774 17.1573 44.2802 16.7825 44.9461 16.1165C45.6854 15.4206 46.0551 14.6041 46.0551 13.667C45.3592 13.1125 44.3888 12.8352 43.144 12.8352C42.2374 12.8352 41.4814 13.0538 40.8761 13.4909C40.2648 13.9345 39.9612 14.4738 39.9612 15.1211Z" fill="#5F6368"/>
<path d="M60.4401 6.87305L52.9877 24.0001H50.6838L53.4493 18.0073L48.549 6.87305H50.9749L54.5167 15.4123H54.5652L58.01 6.87305H60.4401Z" fill="#5F6368"/>
<path d="M19.5654 10.2083C19.5663 9.52813 19.5087 8.84916 19.3935 8.17883H9.98094V12.0229H15.372C15.2617 12.6368 15.0282 13.2221 14.6856 13.7434C14.343 14.2646 13.8984 14.7112 13.3786 15.056V17.5512H16.5961C18.48 15.8143 19.5654 13.2455 19.5654 10.2083Z" fill="#4285F4"/>
<path d="M9.98094 19.9619C12.6744 19.9619 14.9423 19.0775 16.5961 17.5526L13.3786 15.0574C12.4831 15.6646 11.3298 16.0111 9.98094 16.0111C7.37758 16.0111 5.16791 14.2562 4.37775 11.8912H1.06325V14.4627C1.89398 16.1158 3.16781 17.5054 4.74253 18.4765C6.31725 19.4476 8.13088 19.9619 9.98094 19.9619Z" fill="#34A853"/>
<path d="M4.37775 11.8912C3.96003 10.652 3.96003 9.30998 4.37775 8.07075V5.49927H1.06325C0.364412 6.88988 0.000457764 8.42465 0.000457764 9.98099C0.000457764 11.5373 0.364412 13.0721 1.06325 14.4627L4.37775 11.8912Z" fill="#FBBC04"/>
<path d="M9.98094 3.95083C11.4043 3.92758 12.7797 4.46537 13.8097 5.44797L16.6585 2.59925C14.8521 0.902593 12.459 -0.0288989 9.98094 4.44914e-05C8.13088 0.00012881 6.31725 0.514416 4.74253 1.48549C3.16781 2.45656 1.89398 3.8462 1.06325 5.49926L4.37775 8.07074C5.16791 5.70581 7.37758 3.95083 9.98094 3.95083Z" fill="#EA4335"/>
</g>
<defs>
<clipPath id="clip0_100_3032">
<rect width="60.436" height="24" fill="white"/>
</clipPath>
</defs>
</svg>
