<svg width="37" height="36" viewBox="0 0 37 36" fill="none" xmlns="http://www.w3.org/2000/svg">
<path fill-rule="evenodd" clip-rule="evenodd" d="M18.4806 0H18.0159L17.5745 0.18506L10.8132 6.87034C10.5228 7.25202 10.6216 7.54118 11.1037 7.54118H14.0951C14.583 7.54118 14.9664 7.92287 14.9664 8.40286V13.3648C14.9664 13.8448 15.3556 14.2265 15.8377 14.2265H20.7576C21.3384 14.2265 21.7276 13.8448 21.7276 13.3648V8.40286C21.7276 7.92287 22.111 7.54118 22.5931 7.54118H25.3929C25.875 7.54118 25.9737 7.25202 25.6833 6.87034L18.9279 0.18506L18.4806 0ZM29.6434 10.8845C29.4981 10.6937 29.3529 10.6243 29.2426 10.659C29.1322 10.6937 29.0625 10.8383 29.0625 11.0754V24.7293C29.0625 24.9722 29.1322 25.1399 29.2426 25.1977C29.3529 25.2556 29.4981 25.2093 29.6434 25.0185L36.2071 18.524C36.5905 18.2406 36.5905 17.6623 36.2071 17.2807L29.6434 10.8845ZM7.43211 10.5145C7.55409 10.5723 7.62961 10.74 7.62961 10.9829V24.9202C7.62961 25.1631 7.55409 25.3077 7.43211 25.354C7.31594 25.4002 7.14749 25.354 6.95 25.2094L0.287526 18.5241C-0.095842 18.2407 -0.095842 17.6624 0.287526 17.2807L6.95 10.6938C7.14749 10.5029 7.31594 10.4567 7.43211 10.5145ZM20.7558 21.4844H15.8359C15.3538 21.4844 14.9646 21.8661 14.9646 22.3461V27.5971C14.9646 28.1697 14.5812 28.5513 14.0933 28.5513H11.2935C10.8114 28.5513 10.6197 28.8347 11.0089 29.1239L17.5726 35.7108C17.7643 35.9017 18.0083 36 18.2464 36C18.4904 36 18.7286 35.9017 18.9261 35.7108L25.4898 29.1239C25.8731 28.8347 25.6815 28.5513 25.1993 28.5513H22.5913C22.1092 28.5513 21.7258 28.1697 21.7258 27.5971V22.3461C21.7258 21.8661 21.3366 21.4844 20.7558 21.4844Z" fill="#FE0000"/>
</svg>
