<?xml version="1.0" encoding="UTF-8" standalone="no"?>
<svg width="496px" height="159px" viewBox="0 0 496 159" version="1.1" xmlns="http://www.w3.org/2000/svg" xmlns:xlink="http://www.w3.org/1999/xlink">
    <!-- Generator: Sketch 48.2 (47327) - http://www.bohemiancoding.com/sketch -->
    <title>Group</title>
    <desc>Created with Sketch.</desc>
    <defs></defs>
    <g id="logo2-copy-6" stroke="none" stroke-width="1" fill="none" fill-rule="evenodd" transform="translate(-172.000000, -160.000000)">
        <g id="Group" transform="translate(172.000000, 160.000000)">
            <g id="Group-2">
                <path d="M317.031308,125.599976 C307.229878,145.428763 286.516781,158.9572 262.464,158.9572 C228.968,158.9572 201.704,132.6172 201.704,100.0412 C201.704,67.4652 228.968,41.1252 262.464,41.1252 C295.968,41.1252 323.004,67.4652 323.004,100.0412 C323.004,103.5052 322.308,107.2012 321.384,110.4372 C321.384,110.4372 293.66,107.4332 293.66,107.2012 C295.044,103.5052 295.736,104.1972 295.736,100.0412 C295.736,81.7892 280.72,66.7732 262.464,66.7732 C244.212,66.7732 229.2,81.7892 229.2,100.0412 C229.2,118.2972 244.212,133.3132 262.464,133.3132 C270.49908,133.3132 278.004132,130.409472 283.784366,125.599976 L317.031308,125.599976 Z" id="Combined-Shape" fill="#ffffff"></path>
                <polygon id="Fill-12345" fill="#ffffff" points="220.4164 110.4376 321.3844 110.4376 299.8964 87.7936 220.4164 87.7936"></polygon>
                <path d="M113.6752,41.124 C80.8672,41.124 54.0672,67.464 54.0672,100.044 C54.0672,132.62 80.8672,158.956 113.6752,158.956 C146.4832,158.956 172.8232,132.62 172.8232,100.044 C172.8232,67.464 146.4832,41.124 113.6752,41.124 M114.8312,133.312 C96.5752,133.312 81.5592,118.296 81.5592,100.044 C81.5592,81.792 96.5752,66.772 114.8312,66.772 C133.0832,66.772 148.0992,81.792 148.0992,100.044 C148.0992,118.296 133.0832,133.312 114.8312,133.312" id="Fill-12347" fill="#ffffff"></path>
                <polygon id="Fill-12349" fill="#ffffff" points="148.1012 157.5708 175.3652 157.5708 175.3652 1.6108 148.1012 1.6108"></polygon>
                <polygon id="Fill-12352" fill="#ffffff" points="408.7132 157.5708 435.9812 157.5708 435.9812 1.6108 408.7132 1.6108"></polygon>
                <polygon id="Fill-12353" fill="#ffffff" points="2.5412 157.5708 29.8052 157.5708 29.8052 42.5108 2.5412 42.5108"></polygon>
                <polygon id="Fill-12354" fill="#E10600" points="468.3572 157.5708 495.6212 157.5708 495.6212 129.4068 468.3572 129.4068"></polygon>
                <path d="M0,16.172 C0,25.18 7.16,32.348 16.172,32.348 C25.188,32.348 32.348,25.18 32.348,16.172 C32.348,7.16 25.188,0 16.172,0 C7.16,0 0,7.16 0,16.172" id="Fill-12355" fill="#ffffff"></path>
                <polygon id="Fill-12356" fill="#ffffff" points="348.4132 157.5708 375.6812 157.5708 375.6812 42.5108 348.4132 42.5108"></polygon>
                <path d="M345.8728,16.172 C345.8728,25.18 353.0368,32.348 362.0488,32.348 C371.0528,32.348 378.2168,25.18 378.2168,16.172 C378.2168,7.16 371.0528,0 362.0488,0 C353.0368,0 345.8728,7.16 345.8728,16.172" id="Fill-12357" fill="#ffffff"></path>
            </g>
        </g>
    </g>
</svg>