<svg xmlns="http://www.w3.org/2000/svg" width="69" height="42" viewBox="0 0 69 41">
  <g>
    <path d="M56.2688269,14.6923463 C54.3968654,14.6923463 52.6187308,15.1057727 51.0185577,15.8462397 L43.8840769,2.92228048 L43.8840769,2.06903607 L52.6343462,2.06903607 C54.0739231,2.06903607 55.2452115,3.25272223 55.2452115,4.7075366 C55.2452115,6.16235097 54.0739231,7.34603713 52.6343462,7.34603713 L50.4534423,7.34603713 L50.4534423,9.41493716 L52.6343462,9.41493716 C55.2028077,9.41493716 57.2924423,7.30318446 57.2924423,4.7075366 C57.2924423,2.11188875 55.2028077,0.000136040244 52.6343462,0.000136040244 L41.8368462,0.000136040244 L41.8368462,3.46031965 L44.793,8.81540781 L26.7505,8.81540781 L25.80725,6.47660393 L28.0527692,6.47660393 C29.7460962,6.47660393 31.1236154,5.08450412 31.1236154,3.37325389 L31.1236154,3.10335005 C31.1236154,1.39209982 29.7460962,0 28.0527692,0 L20.5167308,0 C18.8234038,0 17.4458846,1.39209982 17.4458846,3.10335005 L17.4458846,3.37325389 C17.4458846,5.08450412 18.8234038,6.47660393 20.5167308,6.47660393 L23.5965962,6.47660393 L24.7816154,9.4150732 L19.4003654,16.6660182 C17.4464231,15.4166246 15.1325192,14.6923463 12.6541154,14.6923463 C5.67673077,14.6923463 0,20.4288914 0,27.4804014 C0,34.5319114 5.67673077,40.2684564 12.6541154,40.2684564 C19.2871538,40.2684564 24.7439231,35.0842348 25.2667692,28.5148514 L27.87925,28.5148514 C28.6340385,31.0611166 30.9725769,32.9225553 33.7346154,32.9225553 C37.1047115,32.9225553 39.8465577,30.1518236 39.8465577,26.745784 C39.8465577,25.3757227 39.4023269,24.108916 38.6526538,23.0834446 L47.4038654,13.5445748 L49.2323462,16.8568827 C45.8470385,19.1543303 43.6147115,23.0586853 43.6147115,27.4804014 C43.6147115,34.5319114 49.2914423,40.2684564 56.2688269,40.2684564 C63.2464808,40.2684564 68.9230769,34.5316393 68.9230769,27.4804014 C68.9230769,20.4291634 63.2464808,14.6923463 56.2688269,14.6923463 Z M20.5167308,4.4077039 C19.9522885,4.4077039 19.4931154,3.94367063 19.4931154,3.37325389 L19.4931154,3.10335005 C19.4931154,2.5329333 19.9522885,2.06890003 20.5167308,2.06890003 L28.0527692,2.06890003 C28.6172115,2.06890003 29.0763846,2.5329333 29.0763846,3.10335005 L29.0763846,3.37325389 C29.0763846,3.94367063 28.6172115,4.4077039 28.0527692,4.4077039 L20.5167308,4.4077039 Z M12.6541154,38.1995563 C6.80548077,38.1995563 2.04723077,33.3910779 2.04723077,27.4804014 C2.04723077,21.5697248 6.80548077,16.7612464 12.6541154,16.7612464 C14.6721346,16.7612464 16.56025,17.3342479 18.1679615,18.3267975 L10.6068846,28.5148514 L23.2106538,28.5148514 C22.694,33.9417688 18.1574615,38.1995563 12.6541154,38.1995563 Z M14.7014808,26.4459513 L19.8042115,19.5702053 C21.6903077,21.3127448 22.9524615,23.7331728 23.2107885,26.4459513 L14.7014808,26.4459513 Z M29.4669038,22.3300538 C29.4316346,22.364744 29.3969038,22.4001145 29.3624423,22.435757 C29.3295962,22.4697671 29.2970192,22.5041853 29.2649808,22.5390116 C29.2313269,22.5756064 29.1980769,22.6123373 29.1653654,22.6496123 C29.1342692,22.6851188 29.1035769,22.7208974 29.0732885,22.7570841 C29.04125,22.7953114 29.0094808,22.8338108 28.9783846,22.8727183 C28.9489038,22.9095852 28.9200962,22.9467242 28.8915577,22.9842713 C28.8612692,23.0239951 28.83125,23.0639909 28.8017692,23.1045309 C28.7741731,23.1426221 28.7471154,23.1812576 28.7204615,23.220029 C28.6919231,23.2613853 28.6635192,23.3027415 28.6360577,23.344914 C28.6102115,23.3843657 28.5851731,23.4243615 28.5601346,23.4644934 C28.5334808,23.507074 28.5070962,23.5499266 28.4815192,23.5931874 C28.4574231,23.6339995 28.4341346,23.6754918 28.4109808,23.7169841 C28.3864808,23.760789 28.3619808,23.804594 28.3386923,23.8489431 C28.3163462,23.8912516 28.2950769,23.9342403 28.2735385,23.977093 C28.2511923,24.0218502 28.2287115,24.0667435 28.2074423,24.112317 C28.1869808,24.1558499 28.1677308,24.200199 28.1482115,24.2444121 C28.1280192,24.2903937 28.1076923,24.3359672 28.0885769,24.3824929 C28.07,24.4275222 28.0527692,24.4730957 28.0354038,24.5188053 C28.0173654,24.5656031 27.9991923,24.6121289 27.9823654,24.6594709 C27.9658077,24.7058606 27.9507308,24.7527945 27.93525,24.7997284 C27.9195,24.8472064 27.9036154,24.8945484 27.8890769,24.9424346 C27.8746731,24.9904568 27.8616154,25.0390231 27.8482885,25.0874535 C27.8350962,25.1353396 27.8212308,25.1830898 27.80925,25.231248 C27.7968654,25.2810387 27.7860962,25.3313736 27.7749231,25.3815725 C27.7641538,25.4294586 27.7528462,25.4772088 27.7431538,25.525367 C27.7327885,25.5774704 27.7243077,25.6303901 27.7151538,25.6830377 C27.7069423,25.7302436 27.6980577,25.7770415 27.6910577,25.8246556 C27.6828462,25.8797519 27.6769231,25.9352563 27.6700577,25.9907607 C27.6644038,26.0368783 27.6579423,26.0825879 27.6532308,26.1289776 C27.6473077,26.1882911 27.6439423,26.2482849 27.6397692,26.3080065 C27.6368077,26.3511313 27.6325,26.39412 27.6304808,26.4373808 C27.6303462,26.4402377 27.6299423,26.4430945 27.6298077,26.4459513 L25.2669038,26.4459513 C24.9972692,23.0582772 23.4154038,20.0394081 21.03675,17.909426 L25.6827308,11.6492621 L29.8494808,21.9809745 C29.8276731,21.9992039 29.8069423,22.0186576 29.7852692,22.0371591 C29.7491923,22.0680403 29.7135192,22.0991935 29.6781154,22.1310269 C29.6413654,22.1639486 29.6052885,22.1975506 29.5692115,22.2314246 C29.53475,22.2640742 29.5005577,22.2967239 29.4669038,22.3300538 Z M33.7346154,30.8536553 C31.7083846,30.8536553 30.0240769,29.3476898 29.7193077,27.3850372 L29.7124423,27.3368789 C29.7121731,27.3351104 29.7120385,27.3332058 29.7117692,27.3311652 C29.6991154,27.2415147 29.6900962,27.1518642 29.6830962,27.0627578 C29.6820192,27.0475213 29.6806731,27.0324208 29.6797308,27.0171843 C29.6735385,26.9259013 29.6699038,26.8350264 29.6699038,26.745648 C29.6699038,24.4805779 31.4932692,22.6377768 33.73475,22.6377768 C33.8032692,22.6377768 33.8713846,22.6395453 33.9390962,22.6430824 C33.9584808,22.6440346 33.9775962,22.6460753 33.9968462,22.6472996 C34.0454423,22.6504285 34.0940385,22.6536935 34.1422308,22.6584549 C34.1621538,22.6604955 34.1819423,22.6633524 34.2017308,22.6658011 C34.2493846,22.6713787 34.2970385,22.6769564 34.3440192,22.6841665 C34.3613846,22.6867513 34.3783462,22.6902883 34.3955769,22.6930091 C34.4453846,22.7013076 34.4951923,22.7098781 34.5443269,22.7199451 C34.5576538,22.7226659 34.5708462,22.7259309 34.5840385,22.7287877 C34.6372115,22.7402151 34.6903846,22.7523227 34.7428846,22.7659267 C34.7515,22.7681034 34.7601154,22.7708242 34.7687308,22.7730008 C34.8258077,22.7882373 34.8824808,22.804154 34.9383462,22.8218392 C34.9427885,22.8231997 34.9472308,22.8248321 34.9516731,22.8261925 C35.0117115,22.8452382 35.0713462,22.8655082 35.1301731,22.8872746 C35.1307115,22.8875467 35.1313846,22.8876827 35.1319231,22.8879548 C35.5034615,23.0258996 35.8496923,23.2171722 36.1615962,23.4525218 C36.1650962,23.4551066 36.1685962,23.4579634 36.1719615,23.4605482 C36.2194808,23.4967349 36.2661923,23.5336018 36.3119615,23.5718291 C36.3189615,23.5776788 36.3256923,23.5835286 36.3325577,23.5893783 C36.3748269,23.6250208 36.4166923,23.6613436 36.4574808,23.6987547 C36.4667692,23.7073252 36.4759231,23.7160318 36.4850769,23.7246023 C37.2923654,24.4759526 37.7991923,25.5518949 37.7991923,26.745784 C37.7993269,29.0108541 35.9759615,30.8536553 33.7346154,30.8536553 Z M37.1810385,21.6444109 C36.5152308,21.1832345 35.7693269,20.8635399 34.9812885,20.6985231 C34.9718654,20.6966186 34.9623077,20.694578 34.9528846,20.6924013 C34.7645577,20.6539019 34.5739423,20.6241091 34.3813077,20.6037031 C34.3595,20.6013904 34.3375577,20.5996219 34.3156154,20.5974452 C34.2426538,20.5905072 34.1694231,20.5849295 34.0959231,20.5804402 C34.0699423,20.5789437 34.0440962,20.5773113 34.0179808,20.5760869 C33.92375,20.5718697 33.8293846,20.5687407 33.7346154,20.5687407 C33.6306923,20.5687407 33.5275769,20.5714615 33.4251346,20.5767671 C33.3913462,20.5783996 33.3578269,20.5820727 33.3241731,20.5843854 C33.2557885,20.5888747 33.1874038,20.593228 33.1196923,20.600166 C33.0789038,20.6042472 33.0387885,20.610369 32.9982692,20.6154025 C32.9382308,20.6227487 32.8780577,20.6294147 32.8185577,20.6385294 C32.7753462,20.6451953 32.7328077,20.6536298 32.6898654,20.6611121 C32.6338654,20.670907 32.5777308,20.6801577 32.5222692,20.691449 C32.4775769,20.7005637 32.4338269,20.7114469 32.3896731,20.7215139 C32.3367692,20.7336215 32.2835962,20.7450489 32.2312308,20.7586529 C32.1861346,20.7702163 32.1418462,20.7834122 32.0971538,20.796064 C32.0464038,20.8103482 31.9955192,20.8242243 31.9453077,20.8397329 C31.9003462,20.853609 31.8561923,20.8691176 31.8116346,20.884082 C31.7627692,20.9005429 31.7136346,20.9165956 31.6653077,20.9342809 C31.6575,20.9371377 31.6494231,20.9395864 31.64175,20.9424433 L27.5853846,10.8843078 L45.93575,10.8843078 L46.3556154,11.6447728 L37.1810385,21.6444109 Z M56.2688269,38.1995563 C50.4200577,38.1995563 45.6619423,33.3909418 45.6619423,27.4804014 C45.6619423,23.8343868 47.474,20.6094168 50.2342885,18.6722037 L55.3748462,27.9844305 L57.1628077,26.9765083 L52.0206346,17.6614247 C53.3222308,17.0840699 54.7587115,16.7612464 56.2689615,16.7612464 C62.1177308,16.7612464 66.8759808,21.5698609 66.8759808,27.4804014 C66.8758462,33.3908058 62.1175962,38.1995563 56.2688269,38.1995563 Z"/>
    <rect width="2.462" height="1.859" x="32.615" y="25.4"/>
  </g>
</svg>
