<svg xmlns="http://www.w3.org/2000/svg" width="88" height="60" viewBox="0 0 88 60">
  <g fill="none">
    <path fill="#000" d="M85.9943182,51.9501136 L78.3559091,51.9501136 C82.8923864,49.0506818 85.9063636,43.9699432 85.9063636,38.1981818 C85.9063636,29.2055114 78.5904545,21.8896023 69.5977841,21.8896023 C66.9867614,21.8896023 64.4336932,22.5122727 62.1352841,23.6964205 L59.3807386,14.8817045 L62.1381818,14.8817045 L62.6807386,18.1372159 C62.8941477,19.4178409 63.9911932,20.3471591 65.2895455,20.3471591 L68.4400568,20.3471591 C69.7384091,20.3471591 70.8354545,19.4176705 71.0488636,18.1372159 L71.9597727,12.6715909 C72.0877841,11.9031818 71.8723295,11.1216477 71.3689773,10.5272727 C70.8654545,9.93289773 70.1299432,9.59215909 69.3509659,9.59215909 L64.3786364,9.59215909 C63.5996591,9.59215909 62.8641477,9.93306818 62.360625,10.5272727 C61.9329545,11.0321591 61.715625,11.6725568 61.7376136,12.3248864 L58.5818182,12.3248864 L57.5541477,9.03613636 C57.54,8.990625 57.5650568,8.94153409 57.6103977,8.92653409 L58.6389205,8.58357955 C59.443125,8.31545455 60.0741477,7.67232955 60.3271023,6.86318182 C60.5798864,6.05386364 60.4271591,5.16596591 59.9185227,4.48772727 L58.5964773,2.72505682 C57.3294886,1.03585227 55.3126705,0.0274431818 53.20125,0.0274431818 L49.1021591,0.0274431818 C48.3961364,0.0274431818 47.82375,0.599829545 47.82375,1.30585227 C47.82375,2.011875 48.3961364,2.58426136 49.1021591,2.58426136 L53.20125,2.58426136 C54.5122159,2.58426136 55.764375,3.21034091 56.5510227,4.25914773 L57.8730682,6.02181818 C57.8817614,6.03340909 57.9,6.05778409 57.8867045,6.10073864 C57.8734091,6.14369318 57.8444318,6.15340909 57.8304545,6.15784091 L56.8019318,6.50079545 C55.4442614,6.95335227 54.6869318,8.43289773 55.1139205,9.79875 L55.6915909,11.6471591 C55.6235795,11.6805682 55.5553977,11.7134659 55.4885795,11.7490909 C50.4463636,14.443125 46.2985227,18.5018182 43.4933523,23.48625 C42.9954545,24.3710795 42.1813636,25.0382386 41.2010795,25.365 L36.301875,26.998125 L31.9709659,17.6144318 L32.705625,17.6144318 C34.9174432,17.6144318 36.7167614,15.8149432 36.7167614,13.6032955 C36.7167614,11.3916477 34.9172727,9.59215909 32.705625,9.59215909 L27.2401705,9.59215909 C25.0283523,9.59215909 23.2290341,11.3916477 23.2290341,13.6032955 C23.2290341,15.8149432 25.0285227,17.6144318 27.2401705,17.6144318 L29.1550568,17.6144318 L30.1794886,19.8339205 L27.5551705,23.0413636 L22.5127841,17.9989773 C21.4970455,16.9834091 20.1465341,16.4239773 18.7102841,16.4239773 L5.3775,16.4239773 C4.67147727,16.4239773 4.09909091,16.9963636 4.09909091,17.7023864 C4.09909091,18.4084091 4.67147727,18.9807955 5.3775,18.9807955 L9.96511364,18.9807955 L15.9617045,34.5721023 C14.6047159,35.2159091 13.6638068,36.5989773 13.6638068,38.1980114 C13.6638068,40.3881818 15.4285227,42.1728409 17.6106818,42.2076136 L30.5884091,42.9286364 C28.655625,48.1880114 23.5965341,51.9499432 17.6751136,51.9499432 C10.0924432,51.9499432 3.92335227,45.7808523 3.92335227,38.1980114 C3.92335227,33.8746023 5.896875,29.8883523 9.33784091,27.2607955 C9.89897727,26.8322727 10.0065341,26.0301136 9.57801136,25.4688068 C9.14965909,24.9078409 8.3475,24.8001136 7.78602273,25.2286364 C3.70636364,28.3436932 1.36653409,33.0709091 1.36653409,38.1978409 C1.36653409,43.9696023 4.38051136,49.0503409 8.91698864,51.9497727 L1.27840909,51.9497727 C0.572386364,51.9497727 0,52.5221591 0,53.2281818 C0,53.9342045 0.572386364,54.5065909 1.27840909,54.5065909 L85.9943182,54.5065909 C86.7003409,54.5065909 87.2727273,53.9342045 87.2727273,53.2281818 C87.2727273,52.5221591 86.7003409,51.9501136 85.9943182,51.9501136 Z M64.3116477,12.1801705 C64.3378977,12.1489773 64.3675568,12.1489773 64.3788068,12.1489773 L69.3511364,12.1489773 C69.3622159,12.1489773 69.391875,12.1489773 69.4182955,12.1801705 C69.4447159,12.2113636 69.4397727,12.2405114 69.4380682,12.2514205 L68.5271591,17.716875 C68.52,17.7594886 68.4835227,17.7903409 68.4403977,17.7903409 L65.2898864,17.7903409 C65.2467614,17.7903409 65.2101136,17.7594886 65.203125,17.716875 L64.2922159,12.2514205 C64.29,12.2406818 64.2852273,12.2113636 64.3116477,12.1801705 Z M42.009375,27.7909091 C43.5932386,27.2628409 44.9113636,26.1794318 45.7211932,24.7404545 C48.2447727,20.2564773 51.9579545,16.5944318 56.4671591,14.1305114 L57.3531818,16.9656818 C51.0311932,20.6149432 46.730625,26.8235795 45.4733523,33.8821023 C44.5934659,33.2273864 43.5073295,32.8358523 42.3317045,32.8225568 C42.3294886,32.8223864 42.3272727,32.8225568 42.3248864,32.8223864 C42.3064773,32.8222159 42.2884091,32.8210227 42.2698295,32.8210227 C42.0809659,32.8210227 41.8943182,32.8310795 41.7103977,32.8501705 L39.0697159,32.9969318 L37.3793182,29.334375 L42.009375,27.7909091 Z M45.0906818,38.1983523 C45.0906818,39.75375 43.8253977,41.0190341 42.27,41.0190341 C40.7146023,41.0190341 39.4493182,39.75375 39.4493182,38.1983523 C39.4493182,36.6429545 40.7146023,35.3776705 42.27,35.3776705 C43.8253977,35.3776705 45.0906818,36.6429545 45.0906818,38.1983523 Z M37.5397159,40.7541477 L33.81375,40.5472159 C33.9248864,39.7798295 33.9835227,38.9959091 33.9835227,38.1981818 C33.9835227,37.4004545 33.9248864,36.6165341 33.81375,35.8491477 L37.5397159,35.6422159 C37.1270455,36.4029545 36.8923295,37.2736364 36.8923295,38.1981818 C36.8923295,39.1227273 37.1270455,39.9934091 37.5397159,40.7541477 Z M27.2396591,15.0577841 C26.4378409,15.0577841 25.7853409,14.4052841 25.7853409,13.6034659 C25.7853409,12.8014773 26.4378409,12.1491477 27.2396591,12.1491477 L32.7051136,12.1491477 C33.5071023,12.1491477 34.1594318,12.8016477 34.1594318,13.6034659 C34.1594318,14.4052841 33.5069318,15.0577841 32.7051136,15.0577841 L27.2396591,15.0577841 Z M31.3704545,22.4157955 L36.324375,33.1491477 L33.2384659,33.320625 C32.3371023,30.4506818 30.6615341,27.920625 28.4584091,25.9748864 L31.3704545,22.4157955 Z M30.5882386,33.4678977 L21.9342614,33.94875 L26.8380682,27.9552273 C28.5020455,29.4453409 29.8034659,31.3324432 30.5882386,33.4678977 Z M12.7046591,18.9811364 L18.7099432,18.9811364 L18.7099432,18.9809659 C19.4633523,18.9809659 20.1717614,19.2743182 20.7046023,19.8071591 L24.1126705,23.2152273 C22.1365909,22.3629545 19.9602273,21.8897727 17.6751136,21.8897727 C16.4275568,21.8897727 15.1902273,22.0329545 13.985625,22.3116477 L12.7046591,18.9811364 Z M14.9135795,24.7247727 C15.8180114,24.5406818 16.7428977,24.4465909 17.6749432,24.4465909 C20.2742045,24.4465909 22.7069318,25.171875 24.7823864,26.43 L18.5154545,34.0895455 L14.9135795,24.7247727 Z M17.6751136,39.6525 C16.8732955,39.6525 16.2207955,39 16.2207955,38.1981818 C16.220625,37.3972159 16.8717614,36.7453977 17.6725568,36.7440341 C17.6734091,36.7440341 17.6744318,36.7442045 17.6752841,36.7442045 C17.6764773,36.7442045 17.6775,36.7440341 17.6786932,36.7440341 C18.4789773,36.7460795 19.1294318,37.3975568 19.1294318,38.1981818 C19.1294318,39.0001705 18.4769318,39.6525 17.6751136,39.6525 Z M21.3272727,39.8536364 C21.5570455,39.3485795 21.68625,38.7884659 21.68625,38.1983523 C21.68625,37.6082386 21.5570455,37.048125 21.3272727,36.5430682 L31.2475568,35.9919886 C31.3639773,36.7107955 31.426875,37.4473295 31.426875,38.1983523 C31.426875,38.949375 31.3639773,39.6860795 31.2475568,40.4047159 L21.3272727,39.8536364 Z M57.721875,28.8964773 C57.1315909,28.509375 56.3389773,28.6736932 55.9517045,29.2643182 C54.2098295,31.92 53.2890341,35.0091477 53.2890341,38.1980114 C53.2890341,43.9697727 56.3030114,49.0505114 60.8396591,51.9499432 L26.4334091,51.9501136 C29.6348864,49.9038068 32.0778409,46.7710227 33.2384659,43.0759091 L41.7107386,43.5465341 C41.8946591,43.565625 42.0811364,43.5756818 42.2701705,43.5756818 C42.2703409,43.5756818 42.2705114,43.5756818 42.2708523,43.5756818 C42.2710227,43.5756818 42.2711932,43.5756818 42.2713636,43.5756818 C42.271875,43.5756818 42.2722159,43.5756818 42.2725568,43.5756818 C42.6814773,43.5755114 43.0793182,43.5279545 43.4623295,43.4408523 L44.8482955,46.2126136 C45.2991477,47.1144886 46.2054545,47.6747727 47.2138636,47.6747727 L49.1021591,47.6747727 C49.8081818,47.6747727 50.3805682,47.1023864 50.3805682,46.3963636 C50.3805682,45.6903409 49.8081818,45.1179545 49.1021591,45.1179545 L47.2138636,45.1179545 C47.1802841,45.1179545 47.1502841,45.099375 47.1352841,45.069375 L45.748125,42.2948864 C46.9092614,41.3077841 47.6480114,39.8379545 47.6480114,38.1980114 C47.6480114,30.5151136 51.6364773,23.4576136 58.138125,19.475625 L61.1415341,29.086875 C61.4601136,30.1061932 61.9682386,31.0392614 62.6521023,31.86 L66.1830682,36.0971591 C65.8055114,36.7085795 65.5869886,37.4282386 65.5869886,38.1981818 C65.5869886,40.41 67.3864773,42.2093182 69.598125,42.2093182 C71.8097727,42.2093182 73.6092614,40.4098295 73.6092614,38.1981818 C73.6092614,35.9865341 71.8097727,34.1870455 69.598125,34.1870455 C69.0864205,34.1870455 68.5972159,34.284375 68.146875,34.4599432 L64.6159091,30.2232955 C64.1476705,29.6613068 63.7996023,29.0224432 63.5815909,28.3244318 L62.9117045,26.180625 C64.9488068,25.0452273 67.245,24.4464205 69.5977841,24.4464205 C77.1804545,24.4464205 83.3495455,30.6155114 83.3495455,38.1981818 C83.3495455,45.7810227 77.1804545,51.9501136 69.5977841,51.9501136 C62.0149432,51.9501136 55.8458523,45.7810227 55.8458523,38.1981818 C55.8458523,35.5089205 56.6217614,32.9047159 58.0897159,30.6666477 C58.4768182,30.0763636 58.3123295,29.28375 57.721875,28.8964773 Z M68.1434659,38.1981818 C68.1434659,37.3963636 68.7957955,36.7438636 69.5977841,36.7438636 C70.3997727,36.7438636 71.0521023,37.3963636 71.0521023,38.1981818 C71.0521023,39 70.3996023,39.6525 69.5977841,39.6525 C68.7959659,39.6525 68.1434659,39 68.1434659,38.1981818 Z"/>
    <path fill="#FE060E" d="M75.0632386 57.4157386L20.4078409 57.4157386C19.7018182 57.4157386 19.1294318 57.988125 19.1294318 58.6941477 19.1294318 59.4001705 19.7018182 59.9725568 20.4078409 59.9725568L75.0634091 59.9725568C75.7694318 59.9725568 76.3418182 59.4001705 76.3418182 58.6941477 76.3418182 57.988125 75.7692614 57.4157386 75.0632386 57.4157386zM14.941875 57.4157386L12.2094886 57.4157386C11.5034659 57.4157386 10.9310795 57.988125 10.9310795 58.6941477 10.9310795 59.4001705 11.5034659 59.9725568 12.2094886 59.9725568L14.941875 59.9725568C15.6478977 59.9725568 16.2202841 59.4001705 16.2202841 58.6941477 16.2202841 57.988125 15.6478977 57.4157386 14.941875 57.4157386z"/>
  </g>
</svg>
