<svg xmlns="http://www.w3.org/2000/svg" width="30" height="30" viewBox="0 0 30 30">
  <path d="M1587.03444,14.9997603 L1599.57811,2.45609269 C1600.13999,1.89420695 1600.13999,0.98330004 1599.57811,0.421414303 C1599.01622,-0.140471434 1598.10531,-0.140471434 1597.54343,0.421414303 L1584.99976,12.9650819 L1572.45609,0.423332002 C1571.89421,-0.138553736 1570.9833,-0.138553736 1570.42141,0.423332002 C1569.85953,0.985217739 1569.85953,1.89612465 1570.42141,2.45801039 L1582.96508,15.001678 L1570.42333,27.5434279 C1569.86145,28.1053136 1569.86145,29.0162205 1570.42333,29.5781063 C1570.70523,29.8580903 1571.07151,30 1571.43971,30 C1571.80791,30 1572.17611,29.860008 1572.45609,29.5781063 L1584.99976,17.0344387 L1597.54343,29.5781063 C1597.82533,29.8580903 1598.19161,30 1598.55981,30 C1598.92801,30 1599.2962,29.860008 1599.57619,29.5781063 C1600.13807,29.0162205 1600.13807,28.1053136 1599.57619,27.5434279 L1587.03444,14.9997603 Z" transform="translate(-1570)"/>
</svg>
