<svg width="29" height="24" viewBox="0 0 29 24" xmlns="http://www.w3.org/2000/svg"><path d="M23.256 9.404h4.904c.464 0 .84.372.84.833 0 .46-.376.832-.84.832h-.574L24.01 22.191A2.611 2.611 0 0 1 21.512 24H7.488a2.611 2.611 0 0 1-2.498-1.808L1.414 11.069H.84a.836.836 0 0 1-.84-.832c0-.46.376-.833.84-.833h4.904L12.027.36a.845.845 0 0 1 1.166-.214c.383.26.48.78.217 1.159L7.783 9.404h13.434l-5.627-8.1a.829.829 0 0 1 .217-1.159.845.845 0 0 1 1.166.215l6.283 9.044zm-20.08 1.665L6.59 21.686c.125.388.485.649.898.649h14.024c.413 0 .773-.261.898-.65l3.413-10.616H3.177z" fill-rule="nonzero"/></svg>