<svg width="36" height="24" viewBox="0 0 36 24" xmlns="http://www.w3.org/2000/svg"><g fill-rule="evenodd"><path d="M17 3V1a1 1 0 0 1 2 0v2h9v1.7H8V3h9z"/><rect x="7.1" y="3" width="1.6" height="5" rx=".8"/><rect x="27.4" y="3" width="1.6" height="5" rx=".8"/><path d="M7.887 24C4.034 24 .9 20.961.9 17.2v-.8h13.975v.8c0 3.761-3.134 6.8-6.988 6.8zm-5.324-6c.399 2.488 2.626 4.4 5.324 4.4s4.926-1.912 5.325-4.4H2.563z" fill-rule="nonzero"/><path d="M7.889 8.267l-5.705 8.62a.7.7 0 0 1-1.168-.773l6.87-10.38 6.897 10.379a.7.7 0 1 1-1.166.774l-5.728-8.62zM28.188 24c-3.854 0-6.988-3.039-6.988-6.8v-.8h13.975v.8c0 3.761-3.134 6.8-6.987 6.8zm0-1.6c2.698 0 4.925-1.912 5.324-4.4H22.863c.399 2.488 2.626 4.4 5.325 4.4z" fill-rule="nonzero"/><path d="M28.189 8.267l-5.705 8.62a.7.7 0 0 1-1.168-.773l6.87-10.38 6.897 10.379a.7.7 0 1 1-1.166.774l-5.728-8.62z" fill-rule="nonzero"/></g></svg>