<svg xmlns="http://www.w3.org/2000/svg" width="71" height="60" viewBox="0 0 71 60">
  <g fill="none">
    <path fill="#000" d="M65.5263303,34.2575229 L63.7016972,26.9591284 C64.2005505,26.8531651 64.5748624,26.4105963 64.5748624,25.880367 L64.5748624,24.7036239 C64.5748624,22.1486697 62.4961927,20.0701376 59.9413761,20.0701376 L51.6305505,20.0701376 L51.6305505,17.6430275 C51.6305505,16.3857798 50.6077982,15.3630275 49.3505505,15.3630275 L33.8972477,15.3630275 L43.2880734,11.6066972 C43.8538073,11.3804587 44.1288991,10.7383486 43.9026606,10.1726147 C43.676422,9.60701835 43.0347248,9.33165138 42.468578,9.55802752 L34.7794954,12.633578 C37.1225229,11.1302752 39.4406422,9.47573394 40.3231651,8.31866972 C42.0412844,6.06605505 41.6061468,2.83568807 39.3535321,1.11756881 C37.1009174,-0.600688073 33.8705505,-0.165412844 32.1524312,2.08720183 C30.8971101,3.73334862 29.2407798,8.3587156 28.1687615,11.6181193 C27.0967431,8.35899083 25.4404128,3.73334862 24.1850917,2.08720183 C22.4671101,-0.165412844 19.2366055,-0.600412844 16.9839908,1.11756881 C14.7313761,2.83555046 14.2963761,6.06591743 16.0143578,8.31866972 C16.8968807,9.47587156 19.2148624,11.1302752 21.5580275,12.633578 L13.868945,9.55802752 C13.3029358,9.33137615 12.6611009,9.60688073 12.4348624,10.1726147 C12.2084862,10.7383486 12.4837156,11.3804587 13.0494495,11.6066972 L22.4402752,15.3630275 L6.98697248,15.3630275 C5.72972477,15.3630275 4.70697248,16.3857798 4.70697248,17.6430275 L4.70697248,37.6480734 C4.70697248,38.2572936 5.20087156,38.7513303 5.81022936,38.7513303 C6.41944954,38.7513303 6.91348624,38.2574312 6.91348624,37.6480734 L6.91348624,17.6430275 C6.91348624,17.6024312 6.94637615,17.5695413 6.98697248,17.5695413 L49.3504128,17.5695413 C49.3910092,17.5695413 49.4238991,17.6024312 49.4238991,17.6430275 L49.4238991,37.6483486 C49.4238991,38.2575688 49.9177982,38.7516055 50.527156,38.7516055 C51.1363761,38.7516055 51.6304128,38.2577064 51.6304128,37.6483486 L51.6304128,36.3977064 L64.6440826,36.3977064 C64.6453211,36.3977064 64.6462844,36.3979817 64.6475229,36.3979817 C64.6487615,36.3979817 64.6498624,36.397844 64.6511009,36.397844 C66.2523853,36.3990826 67.6120183,37.4501835 68.0788073,38.8984404 L64.6483486,38.8984404 C64.0391284,38.8984404 63.5450917,39.3923394 63.5450917,40.0016972 L63.5450917,42.3551835 C63.5450917,44.2612844 65.0957339,45.8119266 67.0018349,45.8119266 L68.2522018,45.8119266 L68.2522018,50.6660092 L65.3675229,50.6660092 C64.4199083,47.9299541 61.8188532,45.9588991 58.7644954,45.9588991 C55.7101376,45.9588991 53.108945,47.9298165 52.1614679,50.6660092 L51.6302752,50.6660092 L51.6302752,42.3550459 C51.6302752,41.7458257 51.1363761,41.251789 50.5270183,41.251789 C49.9177982,41.251789 49.4237615,41.7456881 49.4237615,42.3550459 L49.4237615,50.6658716 L26.5344495,50.6658716 C25.5868349,47.9298165 22.9857798,45.9587615 19.931422,45.9587615 C16.8770642,45.9587615 14.2758716,47.9296789 13.3283945,50.6658716 L6.98697248,50.6658716 C6.94637615,50.6658716 6.91348624,50.6329817 6.91348624,50.5923853 L6.91348624,48.1652752 L11.6940826,48.1652752 C12.3033028,48.1652752 12.7973394,47.6713761 12.7973394,47.0620183 C12.7973394,46.4526606 12.3034404,45.9587615 11.6940826,45.9587615 L1.10325688,45.9587615 C0.494036697,45.9587615 0,46.4526606 0,47.0620183 C0,47.6713761 0.493899083,48.1652752 1.10325688,48.1652752 L4.70711009,48.1652752 L4.70711009,50.5923853 C4.70711009,51.849633 5.72986239,52.8723853 6.98711009,52.8723853 L12.9463761,52.8723853 C12.9461009,52.8968807 12.9444495,52.9212385 12.9444495,52.9458716 C12.9444495,56.7983945 16.0788991,59.932844 19.931422,59.932844 C23.783945,59.932844 26.9183945,56.7983945 26.9183945,52.9458716 C26.9183945,52.9211009 26.9167431,52.8968807 26.9164679,52.8723853 L51.7793119,52.8723853 C51.7790367,52.8968807 51.7773853,52.9212385 51.7773853,52.9458716 C51.7773853,56.7983945 54.9118349,59.932844 58.7643578,59.932844 C62.6168807,59.932844 65.7513303,56.7983945 65.7513303,52.9458716 C65.7513303,52.9211009 65.7496789,52.8968807 65.7494037,52.8723853 L69.3553211,52.8723853 C69.9645413,52.8723853 70.458578,52.3784862 70.458578,51.7691284 L70.458578,40.0015596 C70.4587156,37.0959633 68.3150917,34.6819266 65.5263303,34.2575229 Z M23.793578,11.4301376 C19.441789,8.72587156 18.1509633,7.48169725 17.7688073,6.98050459 C16.788578,5.6953211 17.0368349,3.85224771 18.322156,2.87201835 C18.8519725,2.46798165 19.4764679,2.27270642 20.096422,2.27270642 C20.9801835,2.27270642 21.8545872,2.66986239 22.4307798,3.42536697 C23.4979817,4.82463303 25.1693119,9.53422018 26.2727064,12.9279358 C25.5280734,12.4894954 24.6721101,11.9763303 23.793578,11.4301376 Z M30.0650917,12.9277982 C31.1684862,9.53422018 32.8398165,4.82477064 33.9068807,3.42522936 C34.8871101,2.14004587 36.7301835,1.89192661 38.015367,2.87201835 C39.3006881,3.85224771 39.5488073,5.6953211 38.5687156,6.98050459 C38.1865596,7.48155963 36.8957339,8.72587156 32.5442202,11.43 C31.6658257,11.976055 30.8098624,12.4893578 30.0650917,12.9277982 Z M51.6305505,22.2763761 L59.9413761,22.2763761 C61.2796789,22.2763761 62.3684862,23.3651835 62.3684862,24.7034862 L62.3684862,24.7769725 L51.6305505,24.7769725 L51.6305505,22.2763761 Z M51.6305505,34.1911927 L51.6305505,26.9834862 L61.4335321,26.9834862 L63.2354587,34.1911927 L51.6305505,34.1911927 Z M19.931422,57.7264679 C17.2954128,57.7264679 15.1508257,55.5818807 15.1508257,52.9458716 C15.1508257,50.3098624 17.2954128,48.1652752 19.931422,48.1652752 C22.5674312,48.1652752 24.7120183,50.3098624 24.7120183,52.9458716 C24.7120183,55.5818807 22.5674312,57.7264679 19.931422,57.7264679 Z M58.764633,57.7264679 C56.1286239,57.7264679 53.9840367,55.5818807 53.9840367,52.9458716 C53.9840367,50.3098624 56.1286239,48.1652752 58.764633,48.1652752 C61.4006422,48.1652752 63.5452294,50.3098624 63.5452294,52.9458716 C63.5452294,55.5818807 61.4006422,57.7264679 58.764633,57.7264679 Z M68.2523394,43.6052752 L67.0019725,43.6052752 C66.3125229,43.6052752 65.7516055,43.0443578 65.7516055,42.3549083 L65.7516055,41.1045413 L68.2522018,41.1045413 L68.2522018,43.6052752 L68.2523394,43.6052752 Z"/>
    <path fill="#000" d="M19.931422 50.6658716C18.6741743 50.6658716 17.651422 51.6886239 17.651422 52.9458716 17.651422 54.2031193 18.6741743 55.2258716 19.931422 55.2258716 21.1886697 55.2258716 22.211422 54.2031193 22.211422 52.9458716 22.211422 51.6886239 21.1886697 50.6658716 19.931422 50.6658716zM58.764633 50.6658716C57.5073853 50.6658716 56.484633 51.6886239 56.484633 52.9458716 56.484633 54.2031193 57.5073853 55.2258716 58.764633 55.2258716 60.0218807 55.2258716 61.044633 54.2031193 61.044633 52.9458716 61.044633 51.6886239 60.0218807 50.6658716 58.764633 50.6658716zM45.8201835 45.9587615L29.3455046 45.9587615C28.7362844 45.9587615 28.2422477 46.4526606 28.2422477 47.0620183 28.2422477 47.6713761 28.7361468 48.1652752 29.3455046 48.1652752L45.8201835 48.1652752C46.4294037 48.1652752 46.9234404 47.6713761 46.9234404 47.0620183 46.9234404 46.4526606 46.4295413 45.9587615 45.8201835 45.9587615zM17.5779358 41.251789L3.45674312 41.251789C2.84752294 41.251789 2.35348624 41.7456881 2.35348624 42.3550459 2.35348624 42.9644037 2.84738532 43.4583028 3.45674312 43.4583028L17.5779358 43.4583028C18.187156 43.4583028 18.6811927 42.9644037 18.6811927 42.3550459 18.6811927 41.7456881 18.187156 41.251789 17.5779358 41.251789z"/>
    <path fill="#FE060E" d="M17.5779358 24.7769725L12.8708257 24.7769725C12.2616055 24.7769725 11.7675688 25.2708716 11.7675688 25.8802294L11.7675688 35.2943119C11.7675688 35.9035321 12.2614679 36.3975688 12.8708257 36.3975688 13.4801835 36.3975688 13.9740826 35.9036697 13.9740826 35.2943119L13.9740826 31.6904587 16.4011927 31.6904587C17.0104128 31.6904587 17.5044495 31.1965596 17.5044495 30.5872018 17.5044495 29.977844 17.0105505 29.483945 16.4011927 29.483945L13.9740826 29.483945 13.9740826 26.9834862 17.5779358 26.9834862C18.187156 26.9834862 18.6811927 26.4895872 18.6811927 25.8802294 18.681055 25.2710092 18.187156 24.7769725 17.5779358 24.7769725zM26.2599083 32.2077523C27.3639908 31.4845872 28.0952752 30.2375229 28.0952752 28.822156 28.0952752 26.5915596 26.2806881 24.7769725 24.0500917 24.7769725L21.1081651 24.7769725C20.498945 24.7769725 20.0049083 25.2708716 20.0049083 25.8802294L20.0049083 35.2943119C20.0049083 35.9035321 20.4988073 36.3975688 21.1081651 36.3975688 21.7175229 36.3975688 22.211422 35.9036697 22.211422 35.2943119L22.211422 32.8672018 24.0480275 32.8672018 26.0739908 35.9061468C26.2866055 36.225 26.6362844 36.3975688 26.992844 36.3975688 27.2032569 36.3975688 27.4157339 36.3375688 27.6037156 36.2120642 28.1108257 35.8742202 28.2477523 35.1891743 27.909633 34.6823394L26.2599083 32.2077523zM24.0500917 30.6608257L22.211422 30.6608257 22.211422 26.9834862 24.0500917 26.9834862C25.0640367 26.9834862 25.8887615 27.808211 25.8887615 28.822156 25.8887615 29.8361009 25.0640367 30.6608257 24.0500917 30.6608257zM35.2293578 34.1911927L31.6255046 34.1911927 31.6255046 31.6868807C31.6498624 31.6885321 31.6742202 31.6905963 31.6989908 31.6905963L34.0524771 31.6905963C34.6616972 31.6905963 35.1557339 31.1966972 35.1557339 30.5873394 35.1557339 29.9779817 34.6618349 29.4840826 34.0524771 29.4840826L31.6989908 29.4840826C31.6740826 29.4840826 31.6498624 29.4861468 31.6255046 29.4877982L31.6255046 26.9834862 35.2293578 26.9834862C35.838578 26.9834862 36.3326147 26.4895872 36.3326147 25.8802294 36.3326147 25.2710092 35.8387156 24.7769725 35.2293578 24.7769725L30.5222477 24.7769725C29.9130275 24.7769725 29.4189908 25.2708716 29.4189908 25.8802294L29.4189908 35.2943119C29.4189908 35.9035321 29.9128899 36.3975688 30.5222477 36.3975688L35.2293578 36.3975688C35.838578 36.3975688 36.3326147 35.9036697 36.3326147 35.2943119 36.3326147 34.6849541 35.838578 34.1911927 35.2293578 34.1911927zM43.4666972 34.1911927L39.862844 34.1911927 39.862844 31.6905963 41.113211 31.6905963C41.7224312 31.6905963 42.2164679 31.1966972 42.2164679 30.5873394 42.2164679 29.9779817 41.7225688 29.4840826 41.113211 29.4840826L39.862844 29.4840826 39.862844 26.9834862 43.4666972 26.9834862C44.0759174 26.9834862 44.5699541 26.4895872 44.5699541 25.8802294 44.5699541 25.2710092 44.076055 24.7769725 43.4666972 24.7769725L38.7595872 24.7769725C38.150367 24.7769725 37.6563303 25.2708716 37.6563303 25.8802294L37.6563303 35.2943119C37.6563303 35.9035321 38.1502294 36.3975688 38.7595872 36.3975688L43.4666972 36.3975688C44.0759174 36.3975688 44.5699541 35.9036697 44.5699541 35.2943119 44.5699541 34.6849541 44.0759174 34.1911927 43.4666972 34.1911927z"/>
  </g>
</svg>
