<svg xmlns="http://www.w3.org/2000/svg" width="21" height="20" viewBox="0 0 21 20" fill="#FFF" stroke="#FFF">
  <path stroke-width=".5" d="M29.8125,11.7827074 L26.05525,11.7827074 C26.3248125,11.5964638 26.556375,11.4114217 26.717875,11.2456047 C27.675,10.2711298 27.675,8.68505468 26.717875,7.71057974 C25.7880625,6.76374097 24.1659375,6.76253939 23.2349375,7.71057974 C22.72075,8.23326359 21.3539375,10.3612477 21.54275,11.7827074 L21.45725,11.7827074 C21.644875,10.3612477 20.27925,8.23326359 19.7650625,7.71057974 C18.8340625,6.76253939 17.2119375,6.76374097 16.282125,7.71057974 C15.325,8.68505468 15.325,10.2711298 16.2809375,11.2456047 C16.443625,11.4114217 16.6751875,11.5964638 16.94475,11.7827074 L13.1875,11.7827074 C12.5331875,11.7827074 12,12.3222133 12,12.9842795 L12,15.9882096 C12,16.3198435 12.266,16.5889956 12.59375,16.5889956 L13.1875,16.5889956 L13.1875,23.7984279 C13.1875,24.4604941 13.7206875,25 14.375,25 L28.625,25 C29.2793125,25 29.8125,24.4604941 29.8125,23.7984279 L29.8125,16.5889956 L30.40625,16.5889956 C30.734,16.5889956 31,16.3198435 31,15.9882096 L31,12.9842795 C31,12.3222133 30.4668125,11.7827074 29.8125,11.7827074 Z M17.1240625,8.55768804 C17.365125,8.31256734 17.6845625,8.17799127 18.0241875,8.17799127 C18.362625,8.17799127 18.6820625,8.31256734 18.923125,8.55768804 C19.7235,9.37235389 20.519125,11.4534767 20.2424375,11.7430556 C20.2424375,11.7430556 20.1925625,11.7827074 20.02275,11.7827074 C19.2021875,11.7827074 17.635875,10.9199787 17.1240625,10.3984964 C16.6265,9.89143302 16.6265,9.06475145 17.1240625,8.55768804 Z M20.90625,23.7984279 L14.375,23.7984279 L14.375,16.5889956 L20.90625,16.5889956 L20.90625,23.7984279 Z M20.90625,15.3874236 L13.1875,15.3874236 L13.1875,12.9842795 L20.02275,12.9842795 L20.90625,12.9842795 L20.90625,15.3874236 Z M24.076875,8.55768804 C24.559,8.06864822 25.395,8.06984979 25.8759375,8.55768804 C26.3735,9.06475145 26.3735,9.89143302 25.8759375,10.3984964 C25.364125,10.9199787 23.7978125,11.7827074 22.97725,11.7827074 C22.8074375,11.7827074 22.7575625,11.7442571 22.756375,11.7430556 C22.480875,11.4534767 23.2765,9.37235389 24.076875,8.55768804 Z M28.625,23.7984279 L22.09375,23.7984279 L22.09375,16.5889956 L28.625,16.5889956 L28.625,23.7984279 Z M29.8125,15.3874236 L22.09375,15.3874236 L22.09375,12.9842795 L22.97725,12.9842795 L29.8125,12.9842795 L29.8125,15.3874236 Z" transform="translate(-11 -6)"/>
</svg>
