<svg xmlns="http://www.w3.org/2000/svg" width="18" height="18" viewBox="0 0 18 18">
  <path fill="#EA4335" fill-rule="evenodd" d="M140.15625,49.4609531 C140.15625,51.1015744 139.804688,52.5664143 139.101562,53.8554739 C138.398438,55.1445335 137.408203,56.1523432 136.130859,56.8789042 C134.853516,57.6054651 133.382812,57.9687453 131.71875,57.9687453 C130.148437,57.9687453 128.695312,57.5761679 127.359375,56.7910137 C126.023438,56.0058595 124.96289,54.945315 124.177734,53.6093807 C123.392578,52.2734464 123,50.820325 123,49.2500161 C123,47.6797072 123.392578,46.2265858 124.177734,44.8906515 C124.96289,43.5547172 126.023438,42.4941726 127.359375,41.7090184 C128.695312,40.9238642 130.148437,40.5312869 131.71875,40.5312869 C133.992188,40.5312869 135.9375,41.293004 137.554688,42.8164377 L135.199219,45.1015885 C134.449219,44.3750275 133.546875,43.941435 132.492188,43.8008103 C131.507812,43.6601857 130.535156,43.8008103 129.574219,44.2226843 C128.613281,44.6445583 127.839844,45.2773693 127.253906,46.1211173 C126.621094,47.0351776 126.304688,48.0781441 126.304688,49.2500161 C126.304688,50.2578264 126.550781,51.1777457 127.042969,52.0097751 C127.535156,52.8418046 128.191406,53.5097717 129.011719,54.0136766 C129.832031,54.5175815 130.734375,54.7695342 131.71875,54.7695342 C132.773438,54.7695342 133.699219,54.5351596 134.496094,54.0664109 C135.128906,53.6914116 135.65625,53.1875067 136.078125,52.5546957 C136.382813,52.0390718 136.582031,51.5234484 136.675781,51.0078244 L131.71875,51.0078244 L131.71875,47.9843941 L140.015625,47.9843941 C140.109375,48.5000181 140.15625,48.9922044 140.15625,49.4609531 Z" transform="translate(-123 -40)"/>
</svg>
