<svg width="27" height="24" viewBox="0 0 27 24" xmlns="http://www.w3.org/2000/svg"><path d="M24.82 2.228a7.37 7.37 0 0 0-5.284-2.21 7.389 7.389 0 0 0-5.289 2.216l-.738.746-.75-.758A7.408 7.408 0 0 0 7.464 0a7.38 7.38 0 0 0-5.277 2.21A7.525 7.525 0 0 0 0 7.559c0 2.02.784 3.912 2.198 5.342l10.75 10.869c.148.15.349.231.543.231a.767.767 0 0 0 .544-.226l10.773-10.85A7.554 7.554 0 0 0 27 7.575a7.52 7.52 0 0 0-2.18-5.348zm-1.315 9.59L13.492 21.903 3.5 11.801a5.866 5.866 0 0 1-1.703-4.153c0-1.57.6-3.042 1.698-4.147A5.73 5.73 0 0 1 7.59 1.784a5.75 5.75 0 0 1 4.113 1.723l1.266 1.28c.297.3.774.3 1.07 0l1.256-1.27a5.747 5.747 0 0 1 4.108-1.721c1.546 0 3.003.611 4.101 1.716a5.86 5.86 0 0 1 1.698 4.153 5.837 5.837 0 0 1-1.698 4.153z" fill-rule="nonzero"/></svg>