<?xml version="1.0" encoding="UTF-8" ?>
<!DOCTYPE svg PUBLIC "-//W3C//DTD SVG 1.1//EN" "http://www.w3.org/Graphics/SVG/1.1/DTD/svg11.dtd">
<svg width="216pt" height="50pt" viewBox="0 0 216 50" version="1.1" xmlns="http://www.w3.org/2000/svg">
<g id="#f81720f8">
<path fill="#f81720" opacity="0.97" d=" M 123.41 0.90 C 127.02 1.17 132.26 0.01 134.11 4.14 C 136.25 8.85 137.65 13.85 139.51 18.67 C 137.58 19.20 135.51 19.77 134.83 17.27 C 132.18 19.75 129.47 22.15 126.80 24.61 C 126.17 23.64 125.53 22.67 124.90 21.70 C 127.95 18.99 131.12 16.40 133.96 13.46 C 124.01 12.85 114.02 13.29 104.05 13.22 C 105.12 15.47 106.19 17.72 107.28 19.97 C 106.28 20.48 105.29 20.99 104.30 21.49 C 103.25 19.92 103.11 17.14 101.34 16.34 C 100.33 17.75 99.47 19.25 98.53 20.70 C 97.83 20.26 96.42 19.39 95.71 18.95 C 97.06 16.58 98.49 14.25 99.57 11.74 C 99.34 9.96 98.35 8.41 97.68 6.78 C 95.71 7.20 90.79 6.37 93.41 3.61 C 98.12 3.28 102.86 3.46 107.57 3.64 C 107.56 4.57 107.55 5.49 107.54 6.42 C 105.52 6.59 103.50 6.70 101.48 6.84 C 102.32 7.72 102.40 9.90 103.96 9.76 C 113.62 9.85 123.29 9.87 132.95 9.72 C 132.19 7.94 131.60 6.00 130.26 4.55 C 127.98 4.08 125.64 4.29 123.33 4.19 C 123.35 3.37 123.39 1.72 123.41 0.90 Z" />
<path fill="#f81720" opacity="0.97" d=" M 86.73 36.36 C 88.16 33.24 89.66 30.13 91.67 27.33 C 95.77 27.91 92.91 31.68 91.80 33.71 C 93.68 33.72 95.55 33.73 97.43 33.73 C 97.43 34.56 97.43 36.23 97.43 37.06 C 93.85 37.10 90.24 37.19 86.73 36.36 Z" />
<path fill="#f81720" opacity="0.97" d=" M 139.30 28.22 C 140.06 27.94 141.57 27.37 142.33 27.09 C 143.48 30.41 145.41 33.78 144.60 37.42 C 143.93 37.17 142.59 36.69 141.92 36.45 C 141.03 33.71 139.89 31.05 139.30 28.22 Z" />
</g>
<g class="text">
<path opacity="1.00" d=" M 77.19 27.43 C 79.98 23.69 84.10 20.29 89.01 20.39 C 97.40 19.75 105.27 27.60 104.64 36.00 C 104.68 42.40 99.62 47.61 94.03 50.00 L 85.70 50.00 C 81.08 48.20 76.87 44.69 75.48 39.78 C 74.73 35.66 74.73 31.01 77.19 27.43 M 86.39 25.46 C 82.90 26.25 81.11 29.71 79.65 32.66 C 79.63 34.55 79.63 36.44 79.67 38.34 C 81.10 41.43 83.14 44.90 86.83 45.48 C 90.85 46.44 95.29 45.30 97.88 41.96 C 99.81 38.94 100.93 34.94 99.25 31.55 C 97.63 26.44 91.35 23.58 86.39 25.46 Z" />
<path opacity="1.00" d=" M 129.53 41.61 C 125.39 33.05 131.51 21.30 141.15 20.43 C 150.70 18.94 160.27 28.78 157.80 38.28 C 156.85 43.89 152.19 48.11 147.03 50.00 L 138.65 50.00 C 134.72 48.44 131.52 45.30 129.53 41.61 M 140.46 25.32 C 137.33 26.02 135.09 28.49 133.32 31.00 C 133.23 33.82 132.97 36.67 133.42 39.47 C 135.67 45.46 143.93 47.67 149.04 43.98 C 152.91 41.42 153.98 36.16 152.87 31.88 C 150.98 27.14 145.56 23.62 140.46 25.32 Z" />
<path opacity="1.00" d=" M 199.72 20.57 C 201.09 20.59 202.47 20.61 203.86 20.62 C 206.15 26.31 208.65 31.92 210.52 37.76 C 212.23 41.73 213.99 45.69 215.31 49.81 C 212.89 50.07 210.24 50.22 209.65 47.32 C 209.33 45.99 208.94 44.67 208.57 43.35 C 204.01 43.36 199.46 43.36 194.90 43.35 C 194.06 45.57 193.21 47.77 192.27 49.95 C 191.16 49.87 188.95 49.73 187.84 49.66 C 191.31 40.36 195.57 31.37 198.75 21.95 C 198.99 21.61 199.48 20.92 199.72 20.57 M 196.30 39.83 C 199.96 39.86 203.62 39.90 207.27 39.74 C 205.30 35.25 203.34 30.74 201.62 26.15 C 199.92 30.74 197.75 35.14 196.30 39.83 Z" />
<path opacity="1.00" d=" M 0.00 21.54 C 4.71 21.04 9.46 21.21 14.18 21.30 C 17.53 21.33 20.19 24.70 20.34 27.86 C 20.71 30.61 18.87 32.92 17.03 34.72 C 19.50 36.40 21.79 38.68 22.21 41.78 C 21.97 45.73 18.85 48.86 15.19 50.00 L 0.00 50.00 L 0.00 21.54 M 5.37 24.87 C 5.38 27.68 5.37 30.49 5.34 33.29 C 8.37 33.07 11.70 34.01 14.46 32.39 C 16.75 31.04 16.82 27.22 14.49 25.86 C 11.73 24.22 8.40 25.08 5.37 24.87 M 5.38 36.89 C 5.38 39.98 5.38 43.07 5.36 46.17 C 8.81 45.53 12.34 45.84 15.80 45.31 C 16.80 43.77 17.72 42.16 18.04 40.33 C 15.15 36.10 9.83 36.81 5.38 36.89 Z" />
<path opacity="1.00" d=" M 25.42 21.25 C 32.02 21.26 38.62 21.20 45.22 21.30 C 45.21 22.50 45.21 23.70 45.21 24.91 C 40.25 25.05 35.30 25.03 30.34 24.97 C 30.31 27.73 30.30 30.49 30.29 33.25 C 34.20 33.27 38.12 33.21 42.03 33.37 C 42.17 34.54 42.29 35.71 42.40 36.88 C 38.38 37.06 34.36 37.04 30.33 37.05 C 30.31 39.86 30.30 42.67 30.27 45.48 C 35.27 45.47 40.28 45.46 45.28 45.48 C 45.27 46.99 45.26 48.49 45.25 50.00 L 25.56 50.00 C 25.26 40.42 25.53 30.84 25.42 21.25 Z" />
<path opacity="1.00" d=" M 59.66 20.50 C 61.11 20.53 62.57 20.56 64.02 20.59 C 68.08 30.30 71.94 40.10 75.51 50.00 L 71.47 50.00 C 67.74 42.31 65.11 34.08 61.69 26.22 C 58.29 34.03 55.91 42.24 52.37 49.99 C 50.88 49.79 49.40 49.58 47.93 49.34 C 51.99 39.79 55.64 30.06 59.66 20.50 Z" />
<path opacity="1.00" d=" M 104.93 24.07 C 108.13 21.74 111.96 20.04 116.00 20.38 C 120.33 20.10 124.85 23.61 125.09 28.05 C 125.01 30.95 122.85 33.17 120.61 34.74 C 123.62 36.48 126.77 39.76 125.41 43.54 C 124.90 46.79 122.02 48.70 119.28 50.00 L 110.67 50.00 C 108.54 49.15 106.52 48.05 104.55 46.89 C 105.20 45.69 105.85 44.49 106.51 43.29 C 109.65 45.50 113.80 47.55 117.58 45.64 C 120.10 44.69 121.75 41.42 119.80 39.14 C 117.96 35.90 113.72 37.09 110.67 36.59 C 110.83 35.49 111.01 34.39 111.20 33.30 C 112.98 33.29 114.77 33.30 116.56 33.32 C 117.94 32.42 119.31 31.49 120.67 30.55 C 120.68 29.24 120.69 27.94 120.70 26.63 C 116.72 23.03 110.92 24.45 106.84 27.11 C 106.20 26.10 105.56 25.08 104.93 24.07 Z" />
<path opacity="1.00" d=" M 161.22 21.25 C 162.80 21.25 164.37 21.25 165.94 21.25 C 165.92 24.94 165.92 28.63 165.92 32.31 C 170.58 32.31 175.23 32.32 179.88 32.31 C 179.84 28.62 179.85 24.93 179.85 21.25 C 181.67 21.25 183.48 21.25 185.31 21.25 C 185.27 30.42 185.36 39.60 185.27 48.77 C 184.89 49.08 184.12 49.69 183.73 50.00 L 179.85 50.00 C 179.85 45.68 179.85 41.35 179.85 37.03 C 175.21 37.03 170.57 37.03 165.93 37.03 C 165.92 41.35 165.92 45.68 165.93 50.00 L 161.24 50.00 C 161.23 40.42 161.25 30.83 161.22 21.25 Z" />
</g>
</svg>
