<svg xmlns="http://www.w3.org/2000/svg" width="62" height="42" viewBox="0 0 62 42">
  <g stroke="#FFF" stroke-width=".7" transform="translate(1 1)">
    <path d="M38.6745029 24.9902924L6.23777778 24.9902924C5.77719298 24.9902924 5.35567251 25.2437427 5.13883041 25.6493567 4.91953216 26.0550877 4.94385965 26.5472515 5.19976608 26.9298246L10.1900585 34.4152047C10.4215205 34.7624561 10.811462 34.9707602 11.2280702 34.9707602L33.6842105 34.9707602C34.1009357 34.9707602 34.4907602 34.7624561 34.7222222 34.4152047L39.7125146 26.9298246C39.9684211 26.5472515 39.9927485 26.0550877 39.7734503 25.6493567 39.5564912 25.2436257 39.1349708 24.9902924 38.6745029 24.9902924zM33.0166082 32.4756725L11.8956725 32.4756725 8.5697076 27.4853801 36.3425731 27.4853801 33.0166082 32.4756725zM6.23777778 15.0097076L38.674386 15.0097076C39.1349708 15.0097076 39.5564912 14.7562573 39.7733333 14.3506433 39.9926316 13.9449123 39.9683041 13.4527485 39.7123977 13.0701754L34.7221053 5.58479532C34.4906433 5.23754386 34.1007018 5.02923977 33.6840936 5.02923977L11.2280702 5.02923977C10.811345 5.02923977 10.4215205 5.23754386 10.1900585 5.58479532L5.19976608 13.0701754C4.94385965 13.4527485 4.91953216 13.9449123 5.13883041 14.3506433 5.35578947 14.7563743 5.77730994 15.0097076 6.23777778 15.0097076zM11.8956725 7.52432749L33.0164912 7.52432749 36.3425731 12.5146199 8.5697076 12.5146199 11.8956725 7.52432749z"/>
    <path d="M58.6354386,16.2573099 L49.7253801,16.2573099 C49.1673684,14.1108772 47.2300585,12.5146199 44.9122807,12.5146199 C44.9122807,11.4437427 44.5589474,10.3812865 43.9156725,9.52116959 L38.3016374,2.03578947 C37.3635088,0.785730994 35.8722807,0.0389473684 34.3079532,0.0389473684 L10.6043275,0.0389473684 C9.04,0.0389473684 7.54877193,0.785730994 6.61064327,2.03578947 L0.996608187,9.52233918 C0.353333333,10.3812865 0,11.4437427 0,12.5146199 L0,27.4853801 C0,28.5562573 0.353333333,29.6187135 0.996608187,30.4788304 L6.61064327,37.9642105 C7.54877193,39.214269 9.04,39.9610526 10.6043275,39.9610526 L34.3080702,39.9610526 C35.8723977,39.9610526 37.3636257,39.214269 38.3017544,37.9642105 L43.9157895,30.4776608 C44.5589474,29.6187135 44.9122807,28.5562573 44.9122807,27.4853801 C47.2301754,27.4853801 49.1674854,25.8891228 49.7253801,23.7426901 L58.6354386,23.7426901 C59.3250292,23.7426901 59.8830409,23.1846784 59.8830409,22.4950877 L59.8830409,17.5047953 C59.8830409,16.8153216 59.3250292,16.2573099 58.6354386,16.2573099 Z M42.417193,27.4853801 C42.417193,28.0214035 42.2392982,28.5526316 41.9176608,28.9826901 L36.3036257,36.4680702 C35.8357895,37.0930994 35.0901754,37.465848 34.3079532,37.465848 L10.6043275,37.465848 C9.82210526,37.465848 9.07649123,37.0929825 8.60865497,36.4680702 L2.99461988,28.9838596 C2.67298246,28.5525146 2.49508772,28.0214035 2.49508772,27.4852632 L2.49508772,12.5146199 C2.49508772,11.9785965 2.67298246,11.4473684 2.99461988,11.0173099 L8.60865497,3.53192982 C9.07649123,2.90690058 9.82210526,2.53415205 10.6043275,2.53415205 L34.3080702,2.53415205 C35.0902924,2.53415205 35.8359064,2.90701754 36.3037427,3.53192982 L41.9177778,11.0161404 C42.2394152,11.4474854 42.4173099,11.9785965 42.4173099,12.5147368 L42.4173099,27.4853801 L42.417193,27.4853801 Z M47.4073684,22.4950877 C47.4073684,23.8705263 46.2888889,24.9901754 44.9122807,24.9901754 L44.9122807,15.0097076 C46.2890058,15.0097076 47.4073684,16.1293567 47.4073684,17.5047953 L47.4073684,22.4950877 Z M57.3879532,21.2476023 L49.9025731,21.2476023 L49.9025731,18.7525146 L57.3879532,18.7525146 L57.3879532,21.2476023 Z"/>
  </g>
</svg>
