<svg xmlns="http://www.w3.org/2000/svg" width="16" height="16" viewBox="0 0 16 16">
  <path d="M14.4700124,4.13549386 L13.4142079,5.19129834 L10.7746967,2.54852849 L11.8305012,1.49272401 C12.0455725,1.27765272 12.4203179,1.27765272 12.6353892,1.49272401 L14.4700124,3.33060588 C14.691601,3.55219447 14.691601,3.91390527 14.4700124,4.13549386 Z M5.64883117,12.9664511 L3.00931997,10.3236812 L9.83294522,3.49028001 L12.4724564,6.13304987 L5.64883117,12.9664511 Z M2.39995133,11.5978157 L4.37469675,13.5758197 L1.62439125,14.3513798 L2.39995133,11.5978157 Z M15.411764,2.38885435 L13.5771407,0.550972478 C13.2186886,0.19252034 11.9250022,-0.485280067 10.8920084,0.550972478 L1.59506335,9.8544348 C1.51359695,9.9359012 1.45494115,10.0336609 1.42561324,10.1444552 L0.0243912489,15.1334572 C-0.0407818672,15.3648218 0.0276499047,15.6124796 0.193841351,15.7851884 C0.363291453,15.9578971 0.702191656,15.987225 0.845572512,15.9546385 L5.83131589,14.5501578 C5.94211019,14.5208299 6.03986986,14.4621741 6.12133626,14.3807077 L15.411764,5.07724539 C16.1514788,4.33753052 16.1514788,3.13182788 15.411764,2.38885435 Z"/>
</svg>
