<svg xmlns="http://www.w3.org/2000/svg" width="18" height="18" viewBox="0 0 18 18">
  <path d="M12.213512,13.5717567 C12.6437495,13.143144 13.1555229,12.9135149 13.689581,12.9135149 C14.2267261,12.9135149 14.7362362,13.1458031 15.1511016,13.57538 L17.3369963,15.7530198 C18.2173387,16.6300377 18.2208582,17.8120188 17.3481002,18.7182187 C17.1988404,18.8733799 17.0352854,19.0350364 16.8286666,19.2321079 C16.6815185,19.3741716 16.6249659,19.4291013 16.5620219,19.491228 C16.3976176,19.6534973 16.2660028,19.7919111 16.1685835,19.9023933 C16.1356921,19.9493244 16.1354653,19.949648 16.1072397,19.9779513 C15.4803619,20.6589667 14.6843963,21 13.7077665,21 C13.6527085,20.9997452 13.6527085,20.9997452 13.5751716,20.9975796 C13.5395251,20.9962642 13.5395251,20.9962642 13.5171385,20.9953961 C13.4878647,20.9941831 13.4878647,20.9941831 13.4439266,20.9922216 C12.3244511,20.9200762 11.2782238,20.6043013 9.88261194,19.9454133 C7.46637294,18.7786622 5.35470036,17.1310135 3.60345357,15.0455164 C2.16047671,13.3182838 1.18464586,11.6953007 0.537233861,9.94467336 C0.110250663,8.7991575 -0.056021272,7.84235253 0.0164061747,6.93476167 C0.079630099,6.18287631 0.385631768,5.52793956 0.923967517,4.99163682 L2.28864278,3.63221888 C2.72424195,3.21854297 3.23032177,3 3.76030871,3 C4.2936466,3 4.79764219,3.21847699 5.21475891,3.62609825 C5.42532732,3.82044697 5.63917123,4.0316662 5.96278119,4.36382342 C6.00141704,4.40344911 6.00141704,4.40344911 6.02448748,4.42709519 C6.04739199,4.45055592 6.04739199,4.45055592 6.0853472,4.48940777 C6.12723909,4.53218865 6.12723909,4.53218865 6.14627625,4.55159135 C6.24310776,4.64992095 6.27397112,4.6810467 6.33114368,4.73800335 L7.41415786,5.81693141 C7.85642191,6.25348312 8.09432401,6.77058569 8.09432401,7.30412452 C8.09432401,7.83381012 7.85619987,8.35094882 7.4149983,8.79048421 C7.36213043,8.84315253 7.36213043,8.84315253 7.33059804,8.87462238 C7.29911374,8.90610092 7.29911374,8.90610092 7.24706306,8.9582352 C7.15966354,9.04628662 7.15966354,9.04628662 7.08248877,9.12533688 C6.71115955,9.50396795 6.47363308,9.7381554 6.23906673,9.95503709 C6.46607906,10.4331609 6.78203386,10.9195723 7.23969933,11.4967131 C8.25456844,12.7363939 9.31109832,13.6950157 10.4700561,14.4281394 C10.5612817,14.4859728 10.6590404,14.5388743 10.8471326,14.6325653 C10.9347036,14.6761854 10.9963374,14.7072777 11.0472014,14.7336628 L12.213512,13.5717567 Z M1.19432553,7.03468741 C1.13604547,7.76587304 1.28136203,8.56390697 1.65056485,9.54597394 C2.25338268,11.1666409 3.16487964,12.6778041 4.51766539,14.3000759 C6.15903783,16.2565098 8.13972317,17.8023733 10.4012804,18.8926628 C11.636316,19.4783007 12.5683015,19.7635439 13.5237265,19.8244852 C13.6152896,19.8298524 13.6621879,19.8317077 13.7114036,19.8317077 C14.3446897,19.8317077 14.8340945,19.6261463 15.2413626,19.1889668 C15.3897623,19.0122428 15.5481378,18.8443805 15.7765314,18.6202832 C15.8332224,18.5646587 15.8647849,18.534024 16.008509,18.395048 C16.2229175,18.1905418 16.3601371,18.0540124 16.4917878,17.9135125 C16.9208821,17.4685356 16.9255641,17.0190737 16.5021762,16.5972846 L14.3051079,14.411996 C14.1231058,14.2166174 13.9088131,14.1035473 13.689581,14.1035473 C13.4730512,14.1035473 13.2524942,14.2126305 13.0484179,14.4159361 L11.688144,15.771073 C11.5106263,15.9479203 11.3448866,16.0275519 11.1217912,16.0275519 C10.9986841,16.0275519 10.8769368,15.9966556 10.754761,15.9339437 L10.7046398,15.9064059 C10.6113541,15.8470232 10.5077396,15.7909622 10.3122745,15.6935914 C10.1720637,15.6229541 10.1232457,15.5981272 10.0727424,15.5715576 C9.97685524,15.5211118 9.90033216,15.4770117 9.83137854,15.4322707 C8.55648197,14.625687 7.40509831,13.5812592 6.31493885,12.2417965 C5.71359266,11.4884604 5.31900971,10.8473687 5.03038181,10.1555423 C4.90986818,9.79789068 4.95713595,9.54863875 5.21254424,9.294195 C5.41790975,9.11090953 5.6043835,8.93454405 5.83571129,8.70520906 C5.93179764,8.60995046 6.01637079,8.52506067 6.23504668,8.30453797 C6.30027964,8.23932745 6.30027964,8.23932745 6.40349759,8.13491602 C6.5069868,8.03023048 6.5069868,8.03023048 6.57281817,7.96442162 C6.7909111,7.74715231 6.9045223,7.52736556 6.9045223,7.31137124 C6.9045223,7.09537692 6.7909111,6.87559017 6.57281817,6.65832086 L5.48732849,5.57690424 C5.4174993,5.50578534 5.4174993,5.50578534 5.29917357,5.38587373 C5.18115295,5.26626233 5.18115295,5.26626233 5.11109054,5.19487775 C4.8862202,4.96689796 4.80210423,4.88211866 4.7097945,4.79066234 C4.59195194,4.67390924 4.48994707,4.57596029 4.38665402,4.48051562 C4.1939101,4.28496153 3.97771301,4.17916235 3.76030871,4.17916235 C3.54071305,4.17916235 3.31670611,4.28354201 3.11690836,4.47568753 L1.76250878,5.82494789 C1.42220518,6.16396635 1.2377456,6.5571122 1.19432553,7.03468741 Z" transform="translate(0 -3)"/>
</svg>
