<svg xmlns="http://www.w3.org/2000/svg" width="17" height="25" viewBox="0 0 17 25">
  <g fill="#FE060E">
    <path d="M8.54411765,0.8 C12.8070314,0.8 16.2735441,4.32969006 16.2735441,8.66663672 C16.2735441,9.96848101 15.9538773,11.2589531 15.3476249,12.4016951 L9.13168413,23.8482637 C9.01413607,24.0650477 8.78918702,24.2 8.54411765,24.2 C8.29904827,24.2 8.07409923,24.0650477 7.95660883,23.8483699 L1.742004,12.4037912 C1.13469255,11.2595976 0.814691176,9.96924332 0.814691176,8.66668164 C0.814691176,4.32969719 4.28119686,0.8 8.54411765,0.8 Z M14.9323382,8.66668164 C14.9323382,5.07733601 12.0656233,2.15836328 8.54411765,2.15836328 C5.02259653,2.15836328 2.15589706,5.0773068 2.15589706,8.66668164 C2.15589706,9.74479662 2.42057642,10.8135918 2.92025821,11.7550782 L8.54411766,22.1115898 L14.1698113,11.7517024 C14.6680997,10.8124244 14.9323382,9.74381914 14.9323382,8.66668164 Z"/>
    <path d="M8.54411765,4.63331836 C10.7312073,4.63331836 12.5088088,6.44335341 12.5088088,8.66668164 C12.5088088,10.890002 10.7312149,12.7 8.54411765,12.7 C6.35701319,12.7 4.57942647,10.8899947 4.57942647,8.66663672 C4.57942647,6.44331633 6.35702039,4.63331836 8.54411765,4.63331836 Z M8.54411765,11.3416816 C9.9898282,11.3416816 11.1676471,10.1423792 11.1676471,8.66668164 C11.1676471,7.19095515 9.98984392,5.99168164 8.54411765,5.99168164 C7.09839138,5.99168164 5.92058824,7.19095515 5.92058824,8.66668164 C5.92058824,10.1424081 7.09839138,11.3416816 8.54411765,11.3416816 Z"/>
  </g>
</svg>
