<svg xmlns="http://www.w3.org/2000/svg" width="24" height="12" viewBox="0 0 24 12">
  <g>
    <path d="M23.4337929,12 L0.565469481,12 C0.415820619,12 0.272373669,11.938832 0.166038477,11.8304001 C0.0594406932,11.7217005 -1.9366435e-09,11.5725617 0,11.4171521 L0.00147513585,0.582819495 C0.00147513585,0.261045409 0.254749458,0 0.566944619,0 L23.4345305,0 C23.5841794,0 23.7276263,0.061167991 23.8339615,0.169599878 C23.9405593,0.278299533 24,0.427438327 24,0.582833719 L23.9992624,11.4171805 C23.9992624,11.7389546 23.7459881,12 23.4337929,12 Z M1.13096865,10.834361 L22.8683383,10.834361 L22.8690462,1.16563899 L1.13238442,1.16563899 L1.13096865,10.834361 Z"/>
    <path d="M19.5 4C19.2239505 4 19 3.72650901 19 3.38939404L19 .61060596C19 .273490994 19.2239505 0 19.5 0 19.7760495 0 20 .273490994 20 .61060596L20 3.38939404C20 3.7270962 19.7762213 4 19.5 4zM15.5 6C15.2239505 6 15 5.71621903 15 5.36642027L15 .633579725C15 .283780965 15.2239505 0 15.5 0 15.7760495 0 16 .283780965 16 .633579725L16 5.36642027C16 5.71643666 15.7765303 6 15.5 6zM11.5 4C11.2239505 4 11 3.72650901 11 3.38939404L11 .61060596C11 .273490994 11.2239505 0 11.5 0 11.7760495 0 12 .273490994 12 .61060596L12 3.38939404C12 3.7270962 11.7762213 4 11.5 4zM8.5 6C8.22395048 6 8 5.71621903 8 5.36642027L8 .633579725C8 .283780965 8.22395048 0 8.5 0 8.77604952 0 9 .283780965 9 .633579725L9 5.36642027C9 5.71643666 8.77653035 6 8.5 6zM4.5 4C4.22395048 4 4 3.72645454 4 3.38927244L4 .610727562C4 .273545459 4.22395048 0 4.5 0 4.77604952 0 5 .273545459 5 .610727562L5 3.38927244C5 3.72704185 4.77622126 4 4.5 4z"/>
  </g>
</svg>
