<svg width="24" height="24" viewBox="0 0 25 26" xmlns="http://www.w3.org/2000/svg"><path d="M17.863 17.229l6.373 6.658a.955.955 0 0 1-.687 1.613.946.946 0 0 1-.686-.293l-6.402-6.69a9.89 9.89 0 0 1-5.99 2.014C4.97 20.531.5 16.038.5 10.516.5 4.993 4.972.5 10.47.5c5.5 0 9.971 4.493 9.971 10.016 0 2.515-.933 4.887-2.578 6.713zm-1.045-.35a9.006 9.006 0 0 0 2.623-6.363c0-4.972-4.025-9.016-8.97-9.016C5.525 1.5 1.5 5.544 1.5 10.516c0 4.971 4.025 9.015 8.97 9.015a8.898 8.898 0 0 0 5.717-2.074l.33-.275.301-.303zm-6.347 1.746c4.448 0 8.068-3.638 8.068-8.11 0-4.471-3.62-8.109-8.068-8.109-4.449 0-8.069 3.638-8.069 8.11 0 4.471 3.62 8.109 8.069 8.109zm0 1c-5.002 0-9.069-4.086-9.069-9.11 0-5.022 4.067-9.109 9.069-9.109 5.001 0 9.068 4.087 9.068 9.11 0 5.022-4.067 9.109-9.068 9.109z" fill-rule="nonzero"/></svg>