<svg xmlns="http://www.w3.org/2000/svg" width="60" height="62" viewBox="0 0 60 62">
  <g fill="none" stroke-width=".2" transform="translate(0 1)">
    <path fill="#FE060E" stroke="#FE060E" d="M51.3249609,48.2482031 C49.6142578,48.2482031 48.2224219,49.6399219 48.2224219,51.3507422 C48.2224219,53.0614453 49.6141406,54.4531641 51.3249609,54.4531641 C53.0356641,54.4531641 54.4273828,53.0614453 54.4273828,51.3507422 C54.4273828,49.6400391 53.0356641,48.2482031 51.3249609,48.2482031 Z M51.3248437,52.6144922 C50.6280469,52.6144922 50.0610937,52.0475391 50.0610937,51.3507422 C50.0610937,50.6539453 50.6280469,50.0869922 51.3248437,50.0869922 C52.0216406,50.0869922 52.5885937,50.6539453 52.5885937,51.3507422 C52.5885937,52.0475391 52.0216406,52.6144922 51.3248437,52.6144922 Z"/>
    <path fill="#000" stroke="#000" d="M59.6839453,51.1898438 C59.6253516,48.9183984 58.6639453,46.8291797 56.9766797,45.3072656 L38.4666797,28.6121484 L54.8328516,12.2459766 C54.9404297,12.2138672 55.0467187,12.1739063 55.1492578,12.1197656 L58.6933594,10.2492187 C59.1829687,9.99070312 59.5113281,9.52828125 59.5939453,8.98089844 C59.6766797,8.43339844 59.4996094,7.89480469 59.1080859,7.50292969 L55.1176172,3.51257812 C54.7259766,3.12105469 54.1877344,2.94398437 53.6397656,3.02671875 C53.0923828,3.10933594 52.6300781,3.43769531 52.3714453,3.92742187 L50.5007812,7.47128906 C50.4461719,7.57476562 50.4042187,7.68175781 50.3719922,7.79039063 L42.6469922,15.5153906 C42.2879297,15.8745703 42.2879297,16.4565234 42.6469922,16.8157031 C43.0061719,17.1745313 43.588125,17.1745313 43.9473047,16.8157031 L51.0362109,9.72667969 L52.8939844,11.5844531 L34.7650781,29.7133594 L32.9073047,27.8555859 L40.8203906,19.9426172 C41.1794531,19.5834375 41.1794531,19.0014844 40.8203906,18.6423047 C40.4612109,18.2834766 39.8792578,18.2834766 39.5200781,18.6423047 L33.7785937,24.3837891 L27.5299219,18.7477734 C29.3015625,13.6482422 28.0185937,7.97460938 24.1754297,4.1315625 C20.2389844,0.195117187 14.3336719,-1.059375 9.13078125,0.935976562 C8.84003906,1.04753906 8.62546875,1.29855469 8.56078125,1.603125 C8.49609375,1.90769531 8.58972656,2.22433594 8.80992187,2.44453125 L16.0277344,9.66246094 C16.24125,9.87597656 16.3590234,10.1599219 16.3590234,10.4619141 C16.3590234,10.7639062 16.2413672,11.0478516 16.0277344,11.2614844 L11.3403516,15.9488672 C11.1268359,16.1625 10.8428906,16.2801562 10.5408984,16.2801562 C10.2389062,16.2801562 9.95496094,16.1626172 9.74132812,15.9488672 L2.52339844,8.7309375 C2.30308594,8.51074219 1.98667969,8.41710937 1.68199219,8.48179687 C1.37742187,8.54660156 1.12640625,8.76105469 1.01484375,9.05179687 C-0.980507813,14.2544531 0.273984375,20.1597656 4.21054687,24.0964453 C7.95949219,27.8452734 13.5232031,29.1651562 18.5424609,27.5433984 L23.37375,32.8265625 C23.1416016,33.2801953 22.8397266,33.7032422 22.4674219,34.0755469 C21.0747656,35.4682031 18.9875391,35.9069531 17.1494531,35.1935156 C16.8097266,35.0613281 16.4242969,35.1426563 16.1664844,35.4003516 L4.90957031,46.6572656 C1.86222656,49.7047266 1.86222656,54.6631641 4.90957031,57.7103906 C6.38601562,59.1870703 8.34878906,60 10.4364844,60 C12.5240625,60 14.4869531,59.1870703 15.9631641,57.7108594 L27.2200781,46.4540625 C27.4776562,46.1963672 27.5588672,45.8108203 27.4269141,45.4710938 C26.7133594,43.633125 27.1521094,41.5456641 28.5446484,40.1530078 C29.9375391,38.7603516 32.0248828,38.3216016 33.8628516,39.0350391 C34.2028125,39.1672266 34.5880078,39.0856641 34.8458203,38.8282031 L36.9692578,36.7047656 C37.6086328,36.0653906 37.9606641,35.2151953 37.9606641,34.3110937 C37.9606641,33.4069922 37.6086328,32.5567969 36.9692578,31.9174219 L36.0653906,31.0135547 L37.1649609,29.9139844 L55.7452734,46.6726172 C57.0544922,47.8535156 57.800625,49.4746875 57.8459766,51.2371875 C57.8913281,52.9996875 57.2296875,54.6570703 55.9829297,55.9037109 C54.7421484,57.1447266 53.0889844,57.8051953 51.3380859,57.7673438 C49.5836719,57.7282031 47.9653125,56.9934375 46.7811328,55.6983984 L32.9660156,40.5911719 C32.6230078,40.2162891 32.0417578,40.1905078 31.6671094,40.5331641 C31.2924609,40.8759375 31.2664453,41.4574219 31.6091016,41.8320703 L45.4241016,56.9392969 C46.9503516,58.6081641 49.0360547,59.5550391 51.2969531,59.6055469 C51.3602344,59.6069531 51.4233984,59.6076562 51.4865625,59.6076562 C53.6765625,59.6076562 55.7286328,58.7581641 57.283125,57.2039062 C58.8897656,55.5971484 59.7423047,53.4612891 59.6839453,51.1898438 Z M52.1658984,8.25585937 L53.9259375,4.92140625 L57.6992578,8.69472656 L54.3648047,10.4547656 L52.1658984,8.25585937 Z M19.4910937,25.8561328 C19.2379688,25.5795703 18.8425781,25.4841797 18.49125,25.6151953 C13.9955859,27.2921484 8.90003906,26.1856641 5.510625,22.7966016 C2.43304687,19.7189062 1.24054687,15.2571094 2.29136719,11.0995312 L8.44101562,17.2491797 C9.00199219,17.8100391 9.74765625,18.1188281 10.5407812,18.1188281 C11.3339062,18.1188281 12.0795703,17.8100391 12.6404297,17.2491797 L17.3278125,12.5617969 C17.8886719,12.0008203 18.1974609,11.2551562 18.1974609,10.4620312 C18.1974609,9.66890625 17.8886719,8.92324219 17.3278125,8.36238281 L11.1782812,2.2125 C15.3355078,1.16121094 19.7977734,2.3540625 22.8752344,5.43175781 C26.3508984,8.9071875 27.4189453,14.1039844 25.5965625,18.6713672 C25.4539453,19.0286719 25.5488672,19.4370703 25.8346875,19.6947656 L32.4767578,25.685625 L31.6069922,26.5553906 L30.703125,25.6515234 C30.06375,25.0121484 29.2135547,24.6601172 28.3094531,24.6601172 C27.4053516,24.6601172 26.5551562,25.0121484 25.9157812,25.6515234 L23.7923437,27.7749609 C23.5347656,28.0326562 23.4535547,28.4182031 23.5855078,28.7579297 C23.8300781,29.3878125 23.9361328,30.0466406 23.9179687,30.6971484 L19.4910937,25.8561328 Z M35.6688281,35.4045703 L33.9482812,37.1252344 C31.5820312,36.4430859 29.0071875,37.0901953 27.2445703,38.8526953 L27.2444531,38.8526953 C25.4819531,40.6153125 24.8347266,43.1898047 25.5171094,45.5565234 L14.6629687,56.4104297 C13.5339844,57.5394141 12.0330469,58.1612109 10.4366016,58.1612109 C8.84015625,58.1612109 7.33898437,57.5394141 6.21023437,56.4104297 C3.87972656,54.0800391 3.87972656,50.2880859 6.21023437,47.9575781 L17.0642578,37.1035547 C19.4307422,37.7860547 22.0052344,37.1384766 23.7679687,35.3759766 C25.5304687,33.6133594 26.1778125,31.0388672 25.4954297,28.6722656 L27.2160937,26.9517188 C27.8189062,26.3486719 28.8001172,26.3486719 29.4029297,26.9517188 L30.9569531,28.5057422 L34.1148047,31.6635938 L35.6688281,33.2176172 C36.271875,33.8206641 36.271875,34.8017578 35.6688281,35.4045703 Z"/>
    <path fill="#FE060E" stroke="#FE060E" d="M18.9053906 40.5760547C18.5462109 40.2171094 17.9642578 40.2171094 17.6050781 40.5760547L8.8959375 49.2851953C8.536875 49.644375 8.536875 50.2263281 8.8959375 50.5855078 9.07546875 50.7649219 9.31089844 50.8546875 9.54609375 50.8546875 9.78128906 50.8546875 10.0167188 50.7649219 10.19625 50.5855078L18.9053906 41.8763672C19.2643359 41.5171875 19.2643359 40.9351172 18.9053906 40.5760547zM22.1232422 43.7939062C21.7641797 43.4349609 21.1821094 43.4349609 20.8229297 43.7939062L12.1137891 52.5029297C11.7547266 52.8621094 11.7547266 53.4440625 12.1137891 53.8032422 12.2933203 53.9826562 12.5286328 54.0724219 12.7639453 54.0724219 12.9991406 54.0724219 13.2345703 53.9826562 13.4141016 53.8032422L22.1232422 45.0942187C22.4823047 44.7350391 22.4823047 44.1530859 22.1232422 43.7939062z"/>
  </g>
</svg>
