<?xml version="1.0" encoding="UTF-8" standalone="no"?>
<svg width="19px" height="21px" viewBox="0 0 19 21" version="1.1" xmlns="http://www.w3.org/2000/svg" xmlns:xlink="http://www.w3.org/1999/xlink">
    <!-- Generator: Sketch 48.2 (47327) - http://www.bohemiancoding.com/sketch -->
    <title>sorting</title>
    <desc>Created with Sketch.</desc>
    <defs></defs>
    <g id="catalog" stroke="none" stroke-width="1" fill="none" fill-rule="evenodd" transform="translate(-1589.000000, -289.000000)">
        <g id="Filter-panel" transform="translate(80.000000, 250.000000)" fill="#000000" fill-rule="nonzero">
            <g id="Sorting" transform="translate(1467.000000, 0.000000)">
                <g id="sorting" transform="translate(51.500000, 49.500000) scale(1, -1) rotate(-90.000000) translate(-51.500000, -49.500000) translate(41.000000, 40.000000)">
                    <path d="M18.4988901,3.78947368 L15.8424683,1.21294429 C15.5563865,0.935466506 15.5563865,0.485586126 15.8424683,0.20810834 C16.12855,-0.0693694466 16.5923802,-0.0693694466 16.8784619,0.20810834 L20.7854387,3.99758202 C21.0715204,4.27505981 21.0715204,4.72494019 20.7854387,5.00241798 L16.8784619,8.79189166 C16.5923802,9.06936945 16.12855,9.06936945 15.8424683,8.79189166 C15.5563865,8.51441387 15.5563865,8.06453349 15.8424683,7.78705571 L18.4988901,5.21052632 L0.715521904,5.21052632 C0.320350068,5.21052632 0,4.89241285 0,4.5 C0,4.10758715 0.320350068,3.78947368 0.715521904,3.78947368 L18.4988901,3.78947368 Z" id="Combined-Shape"></path>
                    <path d="M18.4988901,13.7894737 L15.8424683,11.2129443 C15.5563865,10.9354665 15.5563865,10.4855861 15.8424683,10.2081083 C16.12855,9.93063055 16.5923802,9.93063055 16.8784619,10.2081083 L20.7854387,13.997582 C21.0715204,14.2750598 21.0715204,14.7249402 20.7854387,15.002418 L16.8784619,18.7918917 C16.5923802,19.0693694 16.12855,19.0693694 15.8424683,18.7918917 C15.5563865,18.5144139 15.5563865,18.0645335 15.8424683,17.7870557 L18.4988901,15.2105263 L0.715521904,15.2105263 C0.320350068,15.2105263 0,14.8924128 0,14.5 C0,14.1075872 0.320350068,13.7894737 0.715521904,13.7894737 L18.4988901,13.7894737 Z" id="Combined-Shape-Copy" transform="translate(10.500000, 14.500000) rotate(-180.000000) translate(-10.500000, -14.500000) "></path>
                </g>
            </g>
        </g>
    </g>
</svg>