<svg xmlns="http://www.w3.org/2000/svg" width="51" height="42" viewBox="0 0 51 42">
  <g transform="translate(1 1)">
    <path d="M45.6,0 L4,0 C1.7944,0 0,1.7944 0,4 L0,26.4 C0,33.8992 6.1008,40 13.6,40 L36,40 C43.4992,40 49.6,33.8992 49.6,26.4 L49.6,4 C49.6,1.7944 47.8056,0 45.6,0 Z M48,26.4 C48,33.0168 42.6168,38.4 36,38.4 L13.6,38.4 C6.9832,38.4 1.6,33.0168 1.6,26.4 L1.6,4 C1.6,2.6768 2.6768,1.6 4,1.6 L45.6,1.6 C46.9232,1.6 48,2.6768 48,4 L48,26.4 Z"/>
    <path d="M24.8 28.8C22.5944 28.8 20.8 30.5944 20.8 32.8 20.8 35.0056 22.5944 36.8 24.8 36.8 27.0056 36.8 28.8 35.0056 28.8 32.8 28.8 30.5944 27.0056 28.8 24.8 28.8zM24.8 35.2C23.4768 35.2 22.4 34.1232 22.4 32.8 22.4 31.4768 23.4768 30.4 24.8 30.4 26.1232 30.4 27.2 31.4768 27.2 32.8 27.2 34.1232 26.1232 35.2 24.8 35.2zM36.8 29.6L35.2 29.6C33.4352 29.6 32 31.0352 32 32.8 32 34.5648 33.4352 36 35.2 36L36.8 36C38.5648 36 40 34.5648 40 32.8 40 31.0352 38.5648 29.6 36.8 29.6zM36.8 34.4L35.2 34.4C34.3176 34.4 33.6 33.6824 33.6 32.8 33.6 31.9176 34.3176 31.2 35.2 31.2L36.8 31.2C37.6824 31.2 38.4 31.9176 38.4 32.8 38.4 33.6824 37.6824 34.4 36.8 34.4zM14.4 29.6L12.8 29.6C11.0352 29.6 9.6 31.0352 9.6 32.8 9.6 34.5648 11.0352 36 12.8 36L14.4 36C16.1648 36 17.6 34.5648 17.6 32.8 17.6 31.0352 16.1648 29.6 14.4 29.6zM14.4 34.4L12.8 34.4C11.9176 34.4 11.2 33.6824 11.2 32.8 11.2 31.9176 11.9176 31.2 12.8 31.2L14.4 31.2C15.2824 31.2 16 31.9176 16 32.8 16 33.6824 15.2824 34.4 14.4 34.4z"/>
    <polygon points="8 6.4 6.4 6.4 6.4 27.2 43.2 27.2 43.2 25.6 8 25.6"/>
    <polygon points="6.4 6.8 41.6 6.8 41.6 26 43.2 26 43.2 5.2 6.4 5.2"/>
  </g>
</svg>
