<svg xmlns="http://www.w3.org/2000/svg" width="42" height="42" viewBox="0 0 42 42">
  <g stroke="#FFF" stroke-width=".7" transform="translate(1 1)">
    <path d="M9.11267057 5.20725146C6.95922027 5.20725146 5.20725146 6.95922027 5.20725146 9.11267057 5.20725146 11.2691618 6.95625731 13.0180897 9.11267057 13.0180897 11.2661209 13.0180897 13.0180897 11.2661209 13.0180897 9.11267057 13.0180897 6.95617934 11.2690838 5.20725146 9.11267057 5.20725146zM9.11267057 10.414425C8.39516569 10.414425 7.81083821 9.82994152 7.81083821 9.11259259 7.81083821 8.39477583 8.3948538 7.81076023 9.11267057 7.81076023 9.83017544 7.81076023 10.4145029 8.39524366 10.4145029 9.11259259 10.414425 9.83048733 9.83048733 10.414425 9.11267057 10.414425zM30.8093567 26.9039376C28.6559064 26.9039376 26.9039376 28.6559064 26.9039376 30.8093567 26.9039376 32.965848 28.6529435 34.7147758 30.8093567 34.7147758 32.962807 34.7147758 34.7147758 32.962807 34.7147758 30.8093567 34.7147758 28.6529435 32.965848 26.9039376 30.8093567 26.9039376zM30.8093567 32.1111891C30.0918519 32.1111891 29.5075244 31.5267057 29.5075244 30.8093567 29.5075244 30.09154 30.09154 29.5075244 30.8093567 29.5075244 31.5268616 29.5075244 32.1111891 30.0920078 32.1111891 30.8093567 32.1111891 31.5271735 31.5271735 32.1111891 30.8093567 32.1111891z"/>
    <path d="M30.8093567,21.6967641 C29.7606238,21.6967641 28.7357505,21.8759454 27.7518129,22.2304094 L25.4796101,19.9583626 L27.7116569,17.7263158 C30.997271,18.894269 34.7067446,18.0953606 37.1923587,15.6096686 C39.8992593,12.902768 40.60577,8.74487329 38.9503314,5.26323587 C38.5634308,4.44959064 37.4877193,4.26807018 36.854191,4.90167641 L32.0505263,9.70526316 L30.2095906,9.70526316 L30.2095906,7.86432749 L35.0131774,3.06066277 C35.6478752,2.42604288 35.4641715,1.35087719 34.6516179,0.964522417 C31.1701365,-0.690838207 27.0123197,0.0155165692 24.3053411,2.72249513 C21.8195712,5.20818713 21.0208187,8.91758285 22.188694,12.2031969 L19.9566472,14.4352437 L17.6916179,12.1702144 C18.0462378,11.1860429 18.2253411,10.1613255 18.2253411,9.11259259 C18.2252632,4.08795322 14.1373099,0 9.11267057,0 C4.08803119,0 0,4.08795322 0,9.11267057 C0,14.1373879 4.08795322,18.2253411 9.11267057,18.2253411 C10.1614035,18.2253411 11.1861209,18.0462378 12.1702144,17.6916959 L14.4352437,19.9567251 L12.2102924,22.1816764 C8.92483431,21.0138012 5.21528265,21.8125536 2.72959064,24.2983236 C0.0226900585,27.0051462 -0.683820663,31.1631189 0.971539961,34.6446784 C1.35844055,35.4582456 2.43415205,35.639922 3.06768031,35.0062378 L7.87134503,30.2026511 L9.71235867,30.2026511 L9.71235867,32.0436647 L4.90877193,36.8473294 C4.27290448,37.4831189 4.45933723,38.5578947 5.27025341,38.9434698 C6.5251462,39.540117 7.86744639,39.8300195 9.1982846,39.8299415 C11.5602339,39.8298635 13.8853801,38.9168811 15.6166862,37.185575 C18.1024561,34.6998051 18.9011306,30.9904094 17.7333333,27.7048733 L19.9582846,25.479922 L22.2303314,27.7521248 C21.8757895,28.7358285 21.6966082,29.7607018 21.6966082,30.8094347 C21.6966082,35.834152 25.7845614,39.9221053 30.8092788,39.9221053 C35.8339961,39.9221053 39.9220273,35.8340741 39.9220273,30.8093567 C39.9220273,25.7846394 35.8340741,21.6967641 30.8093567,21.6967641 Z M13.3948538,15.23423 C13.0045224,14.8438986 12.4106043,14.7421442 11.9125926,14.9803509 C11.0230019,15.405848 10.0810136,15.6215984 9.11259259,15.6215984 C5.52350877,15.6215984 2.60358674,12.7016764 2.60358674,9.11259259 C2.60358674,5.52350877 5.52358674,2.60358674 9.11267057,2.60358674 C12.7017544,2.60358674 15.6216764,5.52350877 15.6216764,9.11259259 C15.6216764,10.0810136 15.4059259,11.0230019 14.9804288,11.9125926 C14.7423002,12.4106043 14.8439766,13.0045224 15.234308,13.3948538 L18.1156335,16.2761793 L16.2762573,18.1155556 L13.3948538,15.23423 Z M15.2784405,26.4773489 C14.8889669,26.8668226 14.7866667,27.4593372 15.0233138,27.9568811 C16.2067057,30.44577 15.7053411,33.4145809 13.7756725,35.3442495 C12.3173489,36.8024172 10.265809,37.4452242 8.27649123,37.1613255 L11.9346589,33.5031579 C12.1787914,33.2590253 12.3160234,32.9279532 12.3160234,32.5826901 L12.3160234,28.9006628 C12.3160234,28.1817544 11.7331774,27.5988304 11.014191,27.5988304 L7.33208577,27.5988304 C6.98682261,27.5988304 6.65575049,27.7360624 6.41161793,27.9801949 L2.75345029,31.6383626 C2.46962963,29.6488889 3.1122807,27.5973489 4.57052632,26.1391813 C6.5002729,24.2095906 9.46908382,23.7080702 11.9578947,24.89154 C12.4553606,25.1281092 13.0479532,25.0259649 13.4374269,24.6364133 L24.6434308,13.4304094 C25.0329045,13.0409357 25.1351267,12.4484211 24.8985575,11.9508772 C23.7151657,9.4619883 24.2165302,6.49317739 26.1461988,4.56350877 C27.6044444,3.10534113 29.6559844,2.46276803 31.6453801,2.74635478 L27.9872904,6.40452242 C27.7431579,6.64865497 27.6059259,6.9797271 27.6059259,7.32499025 L27.6059259,11.0070175 C27.6059259,11.7259259 28.1887719,12.3088499 28.9077583,12.3088499 L32.5897856,12.3088499 C32.9350487,12.3088499 33.2661209,12.1716959 33.5102534,11.9274854 L37.1684211,8.26939571 C37.4522417,10.2588694 36.8095906,12.3104094 35.351345,13.768577 C33.4215984,15.6981676 30.4527875,16.1997661 27.9638207,15.0162183 C27.4664327,14.7797271 26.8738402,14.8818713 26.4843665,15.271345 C26.225653,15.5302144 16.3185965,25.437271 15.2784405,26.4773489 Z M30.8093567,37.3184405 C27.2202729,37.3184405 24.3003509,34.3985185 24.3003509,30.8094347 C24.3003509,29.8410136 24.5161014,28.8988694 24.9415984,28.0094347 C25.1797271,27.511423 25.0780507,26.9174269 24.6877193,26.5270955 L21.7993762,23.6387524 L23.6387524,21.7993762 L26.5270955,24.6877193 C26.9173489,25.0780507 27.511423,25.1797271 28.0094347,24.9415984 C28.8987914,24.5161793 29.8409357,24.3004288 30.8093567,24.3004288 C34.3984405,24.3004288 37.3183626,27.2203509 37.3183626,30.8094347 C37.3183626,34.3985185 34.3984405,37.3184405 30.8093567,37.3184405 Z"/>
  </g>
</svg>
