<svg xmlns="http://www.w3.org/2000/svg" width="30" height="42" viewBox="0 0 30 42">
  <path d="M172.658667,46.7513333 C172.372,46.5906667 172.105333,46.4133333 171.859333,46.22 C171.854667,46.2166667 171.850667,46.2126667 171.846,46.2086667 C170.117333,44.84 169.4,42.6473333 169.713333,39.674 C170.072,36.2713333 171.631333,33.1053333 172.101333,32.216 C172.365333,31.7153333 172.329333,31.1166667 172.008,30.6513333 C171.686667,30.1866667 171.137333,29.9433333 170.575333,30.012 L167.382,30.4113333 C166.873333,30.4746667 166.436,30.7866667 166.210667,31.2473333 C166.111333,31.4513333 165.978,31.7113333 165.814,32.0093333 C163.906,32.7413333 161.673333,33.1306667 159.333333,33.1306667 C156.624667,33.1306667 154.029333,32.6006667 151.989333,31.6413333 C151.913333,31.496 151.845333,31.3606667 151.789333,31.2466667 C151.564667,30.7866667 151.126667,30.4746667 150.618667,30.4113333 L147.424667,30.012 C146.864667,29.9406667 146.313333,30.186 145.992,30.6513333 C145.670667,31.116 145.634667,31.7153333 145.898667,32.216 C146.368,33.1053333 147.927333,36.2713333 148.286667,39.674 C148.6,42.6466667 147.882667,44.8386667 146.155333,46.2073333 C146.15,46.2113333 146.144667,46.216 146.139333,46.22 C145.893333,46.4133333 145.627333,46.5906667 145.340667,46.7513333 C145.130667,46.8693333 145,47.092 145,47.3333333 L145,69.3333333 C145,69.702 145.298667,70 145.666667,70 L149,70 L169,70 L172.333333,70 C172.701333,70 173,69.702 173,69.3333333 L173,47.3333333 C173,47.092 172.869333,46.8693333 172.658667,46.7513333 Z M148.333333,68.6666667 L146.333333,68.6666667 L146.333333,47.714 C147.147333,47.208 147.814,46.5986667 148.333333,45.888 L148.333333,68.6666667 Z M164.701333,33.776 C163.963333,34.8093333 163.014,35.886 161.871333,36.6753333 C161.871333,36.6753333 161.871333,36.6753333 161.871333,36.676 C160.668,37.5066667 159.178,37.7426667 157.801333,37.4093333 C157.213333,37.2666667 156.643333,37.0306667 156.129333,36.6753333 C155.82,36.462 155.524667,36.226 155.244,35.9766667 C155.24,35.9726667 155.236,35.9686667 155.231333,35.9653333 C154.39,35.214 153.681333,34.334 153.124667,33.5246667 C156.596667,34.6593333 161.092,34.7573333 164.701333,33.776 Z M168.386667,39.534 C168.299333,40.3633333 168.298667,41.138 168.358667,41.8726667 C168.350667,41.9153333 168.333333,41.9546667 168.333333,42 L168.333333,68.6666667 L149.666667,68.6666667 L149.666667,41.9486667 C149.666667,41.9066667 149.650667,41.8693333 149.643333,41.8293333 C149.699333,41.1073333 149.698667,40.3473333 149.613333,39.534 C149.229333,35.8946667 147.576667,32.5366667 147.078667,31.594 C147.036667,31.5153333 147.061333,31.4506667 147.089333,31.4113333 C147.117333,31.37 147.170667,31.3226667 147.26,31.336 L150.454667,31.7353333 C150.515333,31.7433333 150.565333,31.7786667 150.592,31.8326667 C150.678,32.0093333 150.79,32.2273333 150.921333,32.4713333 L150.921333,32.472 C150.923333,32.4753333 150.925333,32.4793333 150.927333,32.482 C151.492667,33.5313333 152.469333,35.106 153.824667,36.4653333 C153.838,36.4786667 153.850667,36.492 153.864,36.5053333 C154.082667,36.7226667 154.310667,36.9346667 154.549333,37.1373333 C154.573333,37.1573333 154.597333,37.1766667 154.621333,37.1966667 C154.862667,37.3986667 155.110667,37.5933333 155.371333,37.7733333 C157.542,39.272 160.458667,39.272 162.629333,37.7733333 C162.85,37.6206667 163.061333,37.4566667 163.268,37.2886667 C163.314,37.2513333 163.359333,37.214 163.404667,37.176 C163.604667,37.0073333 163.8,36.8346667 163.986667,36.6553333 C164.001333,36.6413333 164.014667,36.6266667 164.029333,36.6126667 C164.204,36.4433333 164.371333,36.2693333 164.534,36.0933333 C164.575333,36.0486667 164.616,36.0046667 164.656667,35.96 C164.825333,35.7726667 164.988,35.5846667 165.142667,35.3946667 C165.162,35.3706667 165.18,35.3473333 165.199333,35.3233333 C165.345333,35.142 165.484667,34.9606667 165.618667,34.78 C165.641333,34.7493333 165.664667,34.7186667 165.687333,34.688 C165.835333,34.4853333 165.974667,34.286 166.106667,34.0893333 C166.112,34.0813333 166.117333,34.0733333 166.122667,34.0646667 C166.730667,33.1546667 167.164667,32.336 167.41,31.8326667 C167.436667,31.778 167.486667,31.742 167.548,31.7346667 L170.742,31.3353333 C170.834,31.3213333 170.884667,31.3706667 170.912667,31.4106667 C170.940667,31.4506667 170.964667,31.5146667 170.923333,31.5933333 C170.424,32.5366667 168.770667,35.8946667 168.386667,39.534 Z M171.666667,68.6666667 L169.666667,68.6666667 L169.666667,45.888 C170.186,46.5986667 170.853333,47.2086667 171.666667,47.714 L171.666667,68.6666667 Z" transform="translate(-144 -29)"/>
</svg>
