<svg xmlns="http://www.w3.org/2000/svg" width="154" height="124" viewBox="0 0 154 124">
  <path fill="none" stroke="#E6E6E6" stroke-width="2" d="M151,96 L129,96 L129,72 L151,72 L151,96 Z M151,96 L151,117 C151,119.209139 149.209139,121 147,121 L129,121 L129,96 L151,96 Z M151,72 L129,72 L129,48 L151,48 L151,72 Z M151,48 L129,48 L129,24 L151,24 L151,48 Z M151,24 L129,24 L129,-1 L147,-1 C149.209139,-1 151,0.790861001 151,3 L151,24 Z M-1,96 L-1,72 L21,72 L21,96 L-1,96 Z M-1,96 L21,96 L21,121 L3,121 C0.790861001,121 -1,119.209139 -1,117 L-1,96 Z M-1,72 L-1,48 L21,48 L21,72 L-1,72 Z M-1,48 L-1,24 L21,24 L21,48 L-1,48 Z M-1,24 L-1,3 C-1,0.790861001 0.790861001,-1 3,-1 L21,-1 L21,24 L-1,24 Z M129,-1 L129,121 L21,121 L21,-1 L129,-1 Z" transform="translate(2 2)"/>
</svg>
