<?xml version="1.0" encoding="UTF-8" ?>
<!DOCTYPE svg PUBLIC "-//W3C//DTD SVG 1.1//EN" "http://www.w3.org/Graphics/SVG/1.1/DTD/svg11.dtd">
<svg width="100px" height="100px" viewBox="0 0 512 512" version="1.1" xmlns="http://www.w3.org/2000/svg">
<path d=" M 346.43 84.49 C 356.87 83.83 367.54 85.62 377.11 89.91 C 384.16 92.98 390.20 99.89 389.55 107.98 C 388.81 117.72 382.01 125.47 375.55 132.21 C 373.05 129.70 370.50 127.24 367.90 124.83 C 372.23 120.11 377.06 115.26 378.70 108.87 C 379.65 105.69 377.67 102.55 375.00 100.94 C 369.64 97.57 363.27 96.36 357.09 95.45 C 357.14 112.26 357.10 129.07 357.08 145.88 C 385.84 147.02 414.14 157.34 436.70 175.24 C 462.54 195.49 480.71 225.30 486.68 257.60 C 493.21 291.69 486.22 328.16 467.31 357.30 C 447.39 388.49 414.41 411.07 378.00 417.94 C 353.97 422.62 328.68 420.75 305.63 412.49 C 275.53 401.86 249.49 380.26 233.37 352.72 C 219.56 329.46 213.05 302.02 214.68 275.03 C 216.32 245.00 228.30 215.69 248.10 193.07 C 272.52 164.64 309.01 147.23 346.44 145.87 C 346.42 142.31 346.42 138.74 346.43 135.18 C 328.43 135.37 310.50 137.41 292.77 140.44 C 288.33 141.22 283.84 142.00 279.66 143.75 C 262.90 150.54 246.82 159.33 232.83 170.84 C 220.24 181.28 208.92 195.30 207.54 212.20 C 204.01 211.75 200.48 211.40 196.94 211.15 C 198.86 187.94 215.76 169.49 233.88 156.54 C 211.49 165.80 189.75 177.35 171.45 193.42 C 151.08 210.89 135.25 233.48 125.66 258.53 C 144.08 262.20 161.16 272.40 172.84 287.14 C 185.01 302.14 191.30 321.70 190.31 340.98 C 189.66 355.02 185.23 368.87 177.53 380.63 C 167.44 396.30 151.69 408.24 133.84 413.62 C 115.83 419.21 95.85 418.08 78.57 410.52 C 59.41 402.31 43.84 386.22 36.14 366.87 C 28.98 349.10 28.55 328.74 34.90 310.67 C 39.97 296.08 49.44 283.09 61.69 273.69 C 76.70 262.02 95.93 256.27 114.87 257.19 C 125.67 227.02 145.30 200.22 170.44 180.41 C 199.11 157.58 233.66 143.20 269.07 134.58 C 269.11 129.68 269.08 124.78 269.09 119.88 C 272.64 119.70 276.20 119.71 279.75 119.87 C 279.75 123.96 279.75 128.04 279.76 132.12 C 301.69 127.56 324.05 124.82 346.47 124.50 C 345.96 111.18 346.69 97.83 346.43 84.49 M 294.92 169.94 C 268.84 182.92 247.61 205.29 235.88 231.95 C 224.68 257.07 222.17 285.90 228.56 312.64 C 235.39 341.52 252.82 367.74 276.82 385.20 C 299.73 402.24 328.59 410.95 357.09 409.67 C 392.18 408.43 426.21 391.53 448.70 364.62 C 471.45 337.84 482.08 301.32 477.31 266.51 C 473.30 234.89 456.63 205.20 431.94 185.10 C 410.95 167.81 384.25 157.70 357.09 156.56 C 357.08 195.57 357.08 234.57 357.10 273.58 C 362.01 276.23 365.83 281.25 365.71 287.02 C 365.99 294.89 358.91 302.04 351.02 301.77 C 342.83 301.99 335.64 294.24 336.48 286.09 C 336.73 280.14 341.10 275.27 346.40 273.04 C 346.45 234.22 346.42 195.39 346.42 156.56 C 328.57 157.38 310.87 161.85 294.92 169.94 M 64.36 285.33 C 53.61 294.80 45.96 307.71 42.82 321.68 C 39.66 335.58 40.85 350.46 46.33 363.63 C 52.23 377.83 62.95 390.03 76.40 397.53 C 91.85 406.37 110.81 408.74 128.01 404.19 C 143.22 400.25 156.95 390.90 166.22 378.22 C 175.22 366.16 180.02 351.06 179.73 336.02 C 179.54 320.46 173.87 305.05 163.94 293.07 C 153.51 280.32 138.42 271.61 122.20 268.77 C 116.76 286.86 113.80 305.73 113.76 324.62 C 119.24 327.19 123.42 332.75 123.05 338.98 C 122.98 347.15 115.06 354.11 106.93 353.03 C 99.13 352.45 92.81 344.72 93.86 336.95 C 94.27 331.44 98.25 326.95 103.07 324.64 C 103.07 305.44 106.07 286.27 111.34 267.83 C 94.22 267.53 77.09 273.88 64.36 285.33 M 349.50 283.56 C 346.41 284.57 346.34 289.47 349.31 290.68 C 351.83 292.10 355.31 289.88 355.05 286.99 C 355.08 284.23 351.91 282.50 349.50 283.56 M 104.84 335.92 C 104.79 337.49 104.01 339.29 105.10 340.70 C 106.55 343.00 110.30 342.98 111.73 340.68 C 112.78 339.28 112.06 337.50 112.02 335.95 C 109.63 335.82 107.23 335.81 104.84 335.92 Z" />
<path d=" M 252.24 106.25 C 263.18 106.01 274.13 106.14 285.07 106.18 C 289.15 105.97 292.73 109.93 291.99 113.98 C 291.53 117.76 287.69 120.29 284.02 119.83 C 273.68 119.32 263.34 120.04 253.00 119.77 C 249.32 119.98 245.99 116.67 246.09 113.00 C 245.99 109.61 248.83 106.42 252.24 106.25 Z" />
<path d=" M 275.51 199.55 C 288.77 187.53 305.62 179.34 323.41 176.96 C 323.50 180.18 323.59 183.40 323.68 186.63 C 306.98 189.28 291.03 197.04 279.07 209.07 C 267.71 220.18 259.90 234.76 256.65 250.31 C 253.52 250.39 250.38 250.48 247.25 250.55 C 250.75 231.06 260.84 212.86 275.51 199.55 Z" />
<path d=" M 75.96 289.00 C 81.91 284.96 88.83 282.58 95.89 281.40 C 95.94 283.16 95.99 284.92 96.02 286.68 C 78.18 289.21 63.05 303.66 59.52 321.30 C 57.82 321.37 56.12 321.42 54.42 321.48 C 56.86 308.35 64.68 296.24 75.96 289.00 Z" />
</svg>
