<svg width="186" height="40" viewBox="0 0 186 40" fill="none" xmlns="http://www.w3.org/2000/svg">
<path d="M48 11.488H53.9938V14.1225C55.0496 12.2361 57.4861 11 60.8485 11C66.956 11 71.2443 14.3991 71.2443 19.9285C71.2443 25.458 66.956 28.8571 60.8485 28.8571C57.4861 28.8571 55.0333 27.621 53.9938 25.7345V37.0213H48V11.488ZM53.994 19.9287C53.994 22.4169 55.5858 24.4175 59.6304 24.4175C63.6751 24.4175 65.2669 22.4171 65.2669 19.9287C65.2669 17.4729 63.6751 15.44 59.6304 15.44C55.5858 15.44 53.994 17.4729 53.994 19.9287Z" fill="black"/>
<path d="M95.8576 28.6679H89.8639V26.0334C88.8244 27.9198 86.3716 29.1559 83.0091 29.1559C76.9016 29.1559 72.6133 25.7569 72.6133 20.2274C72.6133 14.6979 76.9014 11.2988 83.0091 11.2988C86.3716 11.2988 88.808 12.5349 89.8639 14.4214V11.7866H95.8576V28.6679ZM89.8639 20.2274C89.8639 17.7715 88.272 15.7387 84.2274 15.7387C80.1827 15.7387 78.5909 17.7715 78.5909 20.2274C78.5909 22.7155 80.1827 24.7161 84.2274 24.7161C88.272 24.7159 89.8639 22.7155 89.8639 20.2274Z" fill="black"/>
<path d="M113.918 16.6819C113.544 16.5029 113.138 16.3567 112.699 16.2103C111.936 15.9663 110.88 15.7387 109.597 15.7387C106.284 15.7387 104.935 17.495 104.935 20.8291V28.6679H98.9414V11.7866H104.935V13.9334C105.715 12.8926 107.339 11.2988 111.254 11.2988C112.927 11.2988 114.161 11.5915 115.055 11.9005C115.558 12.0795 116.013 12.2907 116.387 12.5022L113.918 16.6819Z" fill="black"/>
<path d="M131.624 11.7875H139.664L130.519 18.7971L139.664 28.6689H132.387L126.28 22.0497L124.006 23.7899V28.6689H118.012V4.01367H124.006V17.626L131.624 11.7875Z" fill="black"/>
<path d="M163.377 28.6679H157.383V26.0334C156.344 27.9198 153.891 29.1559 150.529 29.1559C144.421 29.1559 140.133 25.7569 140.133 20.2274C140.133 14.6979 144.421 11.2988 150.529 11.2988C153.891 11.2988 156.328 12.5349 157.383 14.4214V11.7866H163.377V28.6679ZM157.383 20.2274C157.383 17.7715 155.792 15.7387 151.747 15.7387C147.702 15.7387 146.11 17.7715 146.11 20.2274C146.11 22.7155 147.702 24.7161 151.747 24.7161C155.792 24.7159 157.383 22.7155 157.383 20.2274Z" fill="black"/>
<path d="M182.138 16.7633C181.602 16.5843 181.017 16.4056 180.351 16.2592C179.23 15.9988 177.638 15.7387 175.77 15.7387C173.496 15.7387 172.197 15.9988 172.197 16.7633C172.197 17.3324 173.691 17.609 176.112 17.983C181.943 18.845 185.403 19.8695 185.403 23.7565C185.403 28.1802 180.091 29.1559 175.121 29.1559C171.531 29.1559 169.127 28.6679 167.616 28.1638C166.723 27.8711 166.024 27.5296 165.488 27.1555L168.087 23.3663C168.639 23.6264 169.257 23.8542 169.939 24.0494C171.108 24.3909 172.765 24.7161 174.796 24.7161C177.687 24.7161 179.409 24.4396 179.409 23.4313C179.409 22.7321 177.947 22.5531 174.779 22.114C168.331 21.252 166.203 19.5932 166.203 16.6007C166.203 13.4293 168.834 11.2988 175.121 11.2988C178.451 11.2988 180.838 11.7054 182.414 12.1445C183.34 12.3885 184.103 12.665 184.737 12.9738L182.138 16.7633Z" fill="black"/>
<path d="M19.9759 7.44989C13.0638 7.44989 7.44158 13.0798 7.44158 20.0004H0C0 8.9719 8.96091 0 19.9759 0V7.44989Z" fill="black"/>
<path d="M39.9516 20.0002C39.9516 31.0279 30.9916 39.9998 19.9766 39.9998V32.5499C26.8879 32.5499 32.5111 26.92 32.5111 20L39.9516 20.0002Z" fill="black"/>
<path d="M19.9791 25.0946C22.7893 25.0946 25.0675 22.8137 25.0675 20C25.0675 17.1862 22.7893 14.9053 19.9791 14.9053C17.1688 14.9053 14.8906 17.1862 14.8906 20C14.8906 22.8137 17.1688 25.0946 19.9791 25.0946Z" fill="black"/>
</svg>
